<?xml version="1.0" standalone="no"?><!DOCTYPE svg PUBLIC "-//W3C//DTD SVG 1.1//EN" "http://www.w3.org/Graphics/SVG/1.1/DTD/svg11.dtd"><svg class="icon" width="200px" height="100.00px" viewBox="0 0 2048 1024" version="1.1" xmlns="http://www.w3.org/2000/svg"><path d="M204.8 355.705263h64.673684c6.467368 0 10.778947 4.311579 10.778948 10.778948s-4.311579 10.778947-10.778948 10.778947h-64.673684c-6.467368 0-10.778947-4.311579-10.778947-10.778947s4.311579-10.778947 10.778947-10.778948zM519.545263 162.762105c6.467368 0 10.778947 4.311579 10.778948 10.778948s-4.311579 10.778947-10.778948 10.778947-10.778947-4.311579-10.778947-10.778947 4.311579-10.778947 10.778947-10.778948m0-21.557894c-18.324211 0-32.336842 14.012632-32.336842 32.336842s14.012632 32.336842 32.336842 32.336842 32.336842-14.012632 32.336842-32.336842-14.012632-32.336842-32.336842-32.336842zM1962.846316 931.301053h-26.947369v-21.557895h26.947369v21.557895z m53.894737 0h-26.947369v-21.557895h26.947369v21.557895z m-107.789474 0h-26.947368v-21.557895h26.947368v21.557895z m-53.894737 0h-26.947368v-21.557895h26.947368v21.557895z m-53.894737 0h-26.947368v-21.557895h26.947368v21.557895z m-52.816842 0h-26.947368v-21.557895h26.947368v21.557895z m-53.894737 0h-26.947368v-21.557895h26.947368v21.557895z m-53.894737 0h-26.947368v-21.557895h26.947368v21.557895z m-1038.012631 0h-26.947369v-21.557895h26.947369v21.557895z m-53.894737 0h-26.947368v-21.557895h26.947368v21.557895z m-52.816842 0h-26.947368v-21.557895H495.831579v21.557895z m-53.894737 0h-26.947368v-21.557895H441.936842v21.557895z m-53.894737 0h-26.947368v-21.557895H388.042105v21.557895z m-53.894737 0h-26.947368v-21.557895H334.147368v21.557895z m-53.894736 0c-9.701053-1.077895-18.324211-3.233684-28.025264-5.389474L258.694737 905.431579c8.623158 2.155789 16.168421 4.311579 24.791579 4.311579l-3.233684 21.557895zM225.28 916.210526c-8.623158-4.311579-17.246316-8.623158-24.791579-12.934737l11.856842-18.32421c7.545263 4.311579 15.090526 8.623158 22.63579 11.856842l-9.701053 19.402105z m-48.505263-30.181052c-7.545263-5.389474-14.012632-11.856842-20.48-19.402106l15.090526-15.090526c6.467368 6.467368 11.856842 11.856842 19.402105 17.246316l-14.012631 17.246316z m-38.804211-39.882106c-5.389474-7.545263-10.778947-15.090526-16.168421-23.713684l18.324211-10.778947c4.311579 7.545263 8.623158 14.012632 14.012631 21.557895l-16.168421 12.934736zM109.945263 797.642105c-3.233684-8.623158-6.467368-18.324211-8.623158-26.947368l20.48-5.389474c2.155789 7.545263 4.311579 16.168421 7.545263 23.713684l-19.402105 8.623158z m-14.012631-54.972631c0-5.389474-1.077895-10.778947-1.077895-16.168421v-11.856842l21.557895 1.077894v10.778948c0 5.389474 0 9.701053 1.077894 14.012631l-21.557894 2.15579z m24.791579-52.816842l-21.557895-4.311579c2.155789-8.623158 4.311579-18.324211 8.623158-26.947369l20.48 7.545263c-3.233684 7.545263-5.389474 16.168421-7.545263 23.713685z m18.32421-46.349474l-19.402105-10.778947c4.311579-8.623158 9.701053-16.168421 15.090526-23.713685l17.246316 12.934737c-4.311579 6.467368-9.701053 14.012632-12.934737 21.557895z m29.103158-42.037895l-16.168421-15.090526c6.467368-6.467368 12.934737-12.934737 20.48-19.402105l14.012631 16.168421c-6.467368 6.467368-11.856842 12.934737-18.32421 18.32421z m38.80421-32.336842l-11.856842-18.32421c7.545263-5.389474 16.168421-9.701053 24.791579-14.012632l9.701053 19.402105c-7.545263 3.233684-15.090526 7.545263-22.63579 12.934737z m45.271579-22.635789l-6.467368-20.48c9.701053-3.233684 18.324211-5.389474 28.025263-6.467369l3.233684 21.557895c-7.545263 0-16.168421 2.155789-24.791579 5.389474z m344.926316-7.545264h-26.947368v-21.557894h26.947368v21.557894z m-53.894737 0h-26.947368v-21.557894h26.947368v21.557894z m-53.894736 0h-26.947369v-21.557894h26.947369v21.557894z m-52.816843 0H409.6v-21.557894h26.947368v21.557894z m-53.894736 0H355.705263v-21.557894h26.947369v21.557894z m-53.894737 0H301.810526v-21.557894h26.947369v21.557894zM1789.305263 355.705263h32.336842v21.557895h-32.336842zM1853.978947 355.705263h32.336842v21.557895h-32.336842zM1918.652632 355.705263h32.336842v21.557895h-32.336842zM1744.033684 355.705263H1692.294737v-52.816842c0-6.467368-4.311579-10.778947-10.778948-10.778947s-10.778947 4.311579-10.778947 10.778947V355.705263h-53.894737c-6.467368 0-10.778947 4.311579-10.778947 10.778948s4.311579 10.778947 10.778947 10.778947h53.894737v53.894737c0 6.467368 4.311579 10.778947 10.778947 10.778947s10.778947-4.311579 10.778948-10.778947v-53.894737h51.738947c6.467368 0 12.934737-4.311579 12.934737-10.778947s-7.545263-10.778947-12.934737-10.778948zM1283.772632 469.962105c92.698947 0 167.073684 74.374737 167.073684 167.073684s-74.374737 167.073684-167.073684 167.073685-167.073684-74.374737-167.073685-167.073685 74.374737-167.073684 167.073685-167.073684m0-21.557894c-103.477895 0-188.631579 84.075789-188.631579 188.631578s84.075789 188.631579 188.631579 188.631579 188.631579-84.075789 188.631579-188.631579-85.153684-188.631579-188.631579-188.631578z"  /><path d="M1283.772632 469.962105c92.698947 0 167.073684 74.374737 167.073684 167.073684 0 39.882105-14.012632 76.530526-36.648421 104.55579l81.92 119.646316c12.934737 18.324211 7.545263 44.193684-10.778948 57.128421-7.545263 4.311579-15.090526 7.545263-22.635789 7.545263-12.934737 0-25.869474-6.467368-33.414737-17.246316L1347.368421 791.174737c-19.402105 8.623158-42.037895 12.934737-64.673684 12.934737-92.698947 0-167.073684-74.374737-167.073684-167.073685 1.077895-91.621053 75.452632-167.073684 168.151579-167.073684m0-21.557894c-103.477895 0-188.631579 84.075789-188.631579 188.631578s84.075789 188.631579 188.631579 188.631579c19.402105 0 37.726316-3.233684 56.050526-8.623157l70.063158 103.477894c11.856842 17.246316 31.258947 26.947368 51.738947 26.947369 12.934737 0 24.791579-3.233684 35.570526-10.778948 28.025263-19.402105 35.570526-58.206316 16.168422-87.309473l-73.296843-106.711579c20.48-31.258947 32.336842-67.907368 32.336843-105.633685 0-103.477895-85.153684-188.631579-188.631579-188.631578z"  /><path d="M1459.469474 890.341053c-3.233684 0-6.467368-2.155789-8.623158-4.311579l-37.726316-53.894737c-3.233684-5.389474-2.155789-11.856842 3.233684-15.090526 5.389474-3.233684 11.856842-2.155789 15.090527 3.233684l37.726315 53.894737c3.233684 5.389474 2.155789 11.856842-3.233684 15.090526-2.155789 0-4.311579 1.077895-6.467368 1.077895zM1368.926316 414.989474V109.945263c0-18.324211-14.012632-32.336842-32.336842-32.336842H911.898947L688.774737 299.654737V926.989474c0 18.324211 14.012632 32.336842 32.336842 32.336842H1336.589474c18.324211 0 32.336842-14.012632 32.336842-32.336842v-14.012632h-21.557895V926.989474c0 6.467368-5.389474 10.778947-10.778947 10.778947H721.111579c-6.467368 0-10.778947-4.311579-10.778947-10.778947V323.368421l181.086315 1.077895c8.623158 0 17.246316-3.233684 23.713685-9.701053 6.467368-6.467368 9.701053-15.090526 9.701052-24.791579V99.166316H1336.589474c6.467368 0 10.778947 4.311579 10.778947 10.778947v305.044211h21.557895zM901.12 298.576842c-2.155789 2.155789-5.389474 3.233684-8.623158 3.233684H717.877895L905.431579 114.256842v174.618947c0 4.311579-2.155789 7.545263-4.311579 9.701053z"  /><path d="M1376.471579 612.244211c-5.389474 0-9.701053-3.233684-10.778947-8.623158-10.778947-53.894737-61.44-56.050526-63.59579-56.050527-6.467368 0-10.778947-5.389474-10.778947-10.778947s5.389474-10.778947 10.778947-10.778947c24.791579 1.077895 73.296842 16.168421 84.07579 73.296842 1.077895 5.389474-3.233684 11.856842-8.623158 12.934737h-1.077895z"  /></svg>