<svg id="图层_1" data-name="图层 1" xmlns="http://www.w3.org/2000/svg" viewBox="0 0 503.31 112.67"><defs><style>.cls-1{fill:#fff;}.cls-2{fill:#cbe3f7;}</style></defs><title>画板 2 副本10</title><polygon class="cls-1" points="218.5 90.19 204.42 90.19 199.79 68.61 193.51 90.19 179.64 90.19 167.54 51.33 179.28 51.33 187.29 77.65 194.58 51.33 205.34 51.33 212.36 77.65 220.1 51.33 231.57 51.33 218.5 90.19"/><rect class="cls-1" x="237.29" y="51.33" width="11.5" height="38.86"/><path class="cls-1" d="M282.08,90.19h11.62s.06-23.77,0-23.83c.06-26-35.21-12.69-35.21-12.69V90.19H270l0-28.87s12-3.2,12,4.39Z"/><rect class="cls-1" x="303.67" y="51.33" width="23.42" height="9.93"/><path class="cls-1" d="M327.29,83.83s1.21,5.42,1.07,5.47c-24.54,7.87-24.69-8.23-24.69-8.23V37.91L314.87,34V77.65s.86,7,11.66,2.71Z"/><path class="cls-1" d="M352.3,50.61h-4.42a16.21,16.21,0,0,0-16.16,16.16v8a16.21,16.21,0,0,0,16.16,16.16h4.42a16.21,16.21,0,0,0,16.16-16.16v-8A16.21,16.21,0,0,0,352.3,50.61ZM357,76.23a5.91,5.91,0,0,1-5.89,5.89h-1.61a5.91,5.91,0,0,1-5.89-5.89V65.5a5.91,5.91,0,0,1,5.89-5.89h1.61A5.91,5.91,0,0,1,357,65.5Z"/><path class="cls-1" d="M414,65.4c-1.73-23.49-36-12.23-36-12.23V105h11.71V89.72s21,8.81,24.35-14.18A46.08,46.08,0,0,0,414,65.4Zm-11.37,9.46a6.87,6.87,0,0,1-6.87,6.87h-1.6a4.81,4.81,0,0,1-4.81-4.81V61.83a1.21,1.21,0,0,1,1.21-1.21h7.12a4.94,4.94,0,0,1,4.94,4.94Z"/><polygon class="cls-1" points="480.12 105.04 467.05 105.04 473.54 91.63 460.2 51.33 471.76 51.33 480.12 77.65 488.48 51.33 500.04 51.33 480.12 105.04"/><path class="cls-1" d="M422.35,52.9,424,62s22.88-7.26,20.39,5c0,0-18.38-4.51-22.05,4.92,0,0-6.52,17.63,9.19,18.86a65,65,0,0,0,14.92-.26l6.22-1.49a22.28,22.28,0,0,0,2.81-.79V60.51S454,44.52,422.35,52.9Zm22,29.56h-7.47A3.81,3.81,0,0,1,433,78.65V77.58a3.81,3.81,0,0,1,3.81-3.81h7.37a.58.58,0,0,1,.56.57l.08,7.54A.58.58,0,0,1,444.33,82.46Z"/><polygon class="cls-1" points="248.79 44.02 237.29 46.72 237.29 36.7 248.79 34 248.79 44.02"/><polygon class="cls-1" points="68.09 103.89 35.67 103.89 2.1 25.23 27.04 25.23 51.96 82.94 87.11 3.97 112.39 3.97 68.09 103.89"/><polygon class="cls-2" points="117.32 103.89 85.66 103.89 79.13 88.72 91.27 60.95 101.59 81.58 126.63 25.23 151.91 25.23 117.32 103.89"/><polygon class="cls-2" points="62.05 49.04 72.98 25.23 51.59 25.23 62.05 49.04"/></svg>