<svg xmlns="http://www.w3.org/2000/svg" viewBox="0 0 18 18"><path d="M8.3 9.7c2.7 0 4.9-2.2 4.9-4.9C13.2 2.2 11 0 8.3 0S3.5 2.2 3.5 4.9s2.2 4.8 4.8 4.8zm2.3-3.5S10.5 8 8.3 8 6.1 6.2 6.1 6.2h4.5zm-2.3 7.6c0-1.2.4-2.3 1.1-3.1H8.3c-5.7 0-7.1 2.9-7.1 7.1h9c-1.1-1-1.9-2.4-1.9-4z"/><path d="M16.6 13.8l.9-.4c.1 0 .1-.1.1-.2l-.3-1.1c0-.1-.1-.2-.2-.2l-.9.1c-.1 0-.1 0-.2-.1s-.2-.3-.3-.4c0-.1-.1-.1 0-.2l.3-.8c0-.1 0-.2-.1-.2l-.9-.6c-.1-.1-.2 0-.3 0l-.6.7c0 .1-.1.1-.2.1-.2 0-.4-.1-.6-.1-.1 0-.1 0-.2-.1l-.4-.8c0-.1-.1-.1-.2-.1l-1.1.3c-.1 0-.2.1-.1.2l.1.9c0 .1 0 .1-.1.2l-.3.3c-.1 0-.1.1-.2 0l-.6-.3c-.1 0-.2 0-.2.1l-.6.9c-.1.1 0 .2 0 .3l.7.5c.1 0 .1.1.1.2 0 .2-.1.4-.1.5 0 .1-.1.1-.1.2l-.8.3c-.1 0-.1.1-.1.2l.3 1.1c0 .1.1.2.2.2l.9-.1c.1 0 .1 0 .2.1.1.2.2.3.3.4.1.1.1.1 0 .2l-.3.8c0 .1 0 .2.1.2l.9.6c.1.1.2 0 .3 0l.5-.7c0-.1.1-.1.2-.1.2 0 .3.1.5.1.1 0 .1.1.2.1l.3.8c0 .1.1.1.2.1l1.1-.3c.1 0 .2-.1.2-.2l-.2-.9c0-.1 0-.1.1-.2s.3-.2.4-.3c.1-.1.1-.1.2 0l.8.3c.1 0 .2 0 .2-.1l.6-.9c.1-.1 0-.2 0-.3l-.7-.6c-.1 0-.1-.1-.1-.2.1-.1.1-.3.1-.5zm-3.2 2c-1.2 0-2.1-.9-2.1-2.1s.9-2.1 2.1-2.1 2.1.9 2.1 2.1-1 2.1-2.1 2.1z"/><path d="M13.4 12.7c-.6 0-1 .5-1 1 0 .6.5 1 1 1s1-.5 1-1-.5-1-1-1z"/></svg>