<?xml version="1.0" encoding="utf-8"?>
<!-- Generator: Adobe Illustrator 21.0.0, SVG Export Plug-In . SVG Version: 6.00 Build 0)  -->
<svg version="1.1" id="图层_1" xmlns="http://www.w3.org/2000/svg" xmlns:xlink="http://www.w3.org/1999/xlink" x="0px" y="0px"
	 viewBox="0 0 18 18" style="enable-background:new 0 0 18 18;" xml:space="preserve">
<path d="M8.3,9.7c2.7,0,4.9-2.2,4.9-4.9C13.2,2.2,11,0,8.3,0S3.5,2.2,3.5,4.9S5.7,9.7,8.3,9.7z M10.6,6.2c0,0-0.1,1.8-2.3,1.8
	S6.1,6.2,6.1,6.2H10.6z M8.3,13.8c0-1.2,0.4-2.3,1.1-3.1c-0.4,0-0.7,0-1.1,0c-5.7,0-7.1,2.9-7.1,7.1h9C9.1,16.8,8.3,15.4,8.3,13.8z"
	/>
<path d="M16.6,13.8l0.9-0.4c0.1,0,0.1-0.1,0.1-0.2l-0.3-1.1c0-0.1-0.1-0.2-0.2-0.2l-0.9,0.1c-0.1,0-0.1,0-0.2-0.1
	c-0.1-0.1-0.2-0.3-0.3-0.4c0-0.1-0.1-0.1,0-0.2l0.3-0.8c0-0.1,0-0.2-0.1-0.2l-0.9-0.6c-0.1-0.1-0.2,0-0.3,0l-0.6,0.7
	c0,0.1-0.1,0.1-0.2,0.1c-0.2,0-0.4-0.1-0.6-0.1c-0.1,0-0.1,0-0.2-0.1l-0.4-0.8c0-0.1-0.1-0.1-0.2-0.1l-1.1,0.3
	c-0.1,0-0.2,0.1-0.1,0.2l0.1,0.9c0,0.1,0,0.1-0.1,0.2c-0.1,0.1-0.2,0.2-0.3,0.3c-0.1,0-0.1,0.1-0.2,0L10.2,11c-0.1,0-0.2,0-0.2,0.1
	L9.4,12c-0.1,0.1,0,0.2,0,0.3l0.7,0.5c0.1,0,0.1,0.1,0.1,0.2c0,0.2-0.1,0.4-0.1,0.5c0,0.1-0.1,0.1-0.1,0.2L9.2,14
	c-0.1,0-0.1,0.1-0.1,0.2l0.3,1.1c0,0.1,0.1,0.2,0.2,0.2l0.9-0.1c0.1,0,0.1,0,0.2,0.1c0.1,0.2,0.2,0.3,0.3,0.4c0.1,0.1,0.1,0.1,0,0.2
	l-0.3,0.8c0,0.1,0,0.2,0.1,0.2l0.9,0.6c0.1,0.1,0.2,0,0.3,0l0.5-0.7c0-0.1,0.1-0.1,0.2-0.1c0.2,0,0.3,0.1,0.5,0.1
	c0.1,0,0.1,0.1,0.2,0.1l0.3,0.8c0,0.1,0.1,0.1,0.2,0.1l1.1-0.3c0.1,0,0.2-0.1,0.2-0.2L15,16.6c0-0.1,0-0.1,0.1-0.2
	c0.1-0.1,0.3-0.2,0.4-0.3c0.1-0.1,0.1-0.1,0.2,0l0.8,0.3c0.1,0,0.2,0,0.2-0.1l0.6-0.9c0.1-0.1,0-0.2,0-0.3l-0.7-0.6
	c-0.1,0-0.1-0.1-0.1-0.2C16.6,14.2,16.6,14,16.6,13.8L16.6,13.8z M13.4,15.8c-1.2,0-2.1-0.9-2.1-2.1s0.9-2.1,2.1-2.1
	s2.1,0.9,2.1,2.1S14.5,15.8,13.4,15.8z"/>
<path d="M13.4,12.7c-0.6,0-1,0.5-1,1c0,0.6,0.5,1,1,1s1-0.5,1-1C14.4,13.2,13.9,12.7,13.4,12.7z"/>
</svg>
