<?xml version="1.0" encoding="utf-8"?>
<!-- Generator: Adobe Illustrator 21.0.0, SVG Export Plug-In . SVG Version: 6.00 Build 0)  -->
<svg version="1.1" id="图层_1" xmlns="http://www.w3.org/2000/svg" xmlns:xlink="http://www.w3.org/1999/xlink" x="0px" y="0px"
	 viewBox="0 0 18 18" style="enable-background:new 0 0 18 18;" xml:space="preserve">
<path d="M8.5,2.2C5,2.2,2.1,5.1,2.1,8.6c0,3,2.1,5.5,4.9,6.2L7.2,17C3.1,16.4,0,12.8,0,8.6c0-4.7,3.8-8.5,8.5-8.5
	c4.3,0,7.8,3.1,8.4,7.2l-2.2-0.2C14,4.3,11.5,2.2,8.5,2.2z M18,9.8l-4.3,2.1l3.5,3.5c0.4,0.4,0.4,1.1,0,1.5c-0.4,0.4-1.1,0.4-1.5,0
	l-3.4-3.4l-1.9,4.5l-3.5-11C6.8,6.9,18,9.8,18,9.8L18,9.8z"/>
</svg>
