<svg enable-background="new 0 0 18 18" viewBox="0 0 18 18" xmlns="http://www.w3.org/2000/svg"><path d="m7.6 18h-4.3c-1.7 0-3-1.3-3-3v-12c0-1.7 1.3-3 3-3h10.6c1.7 0 3 1.3 3 3v5.7c0 .6-.4 1-1 1s-1-.4-1-1v-5.7c0-.6-.4-1-1-1h-10.6c-.6 0-1 .4-1 1v12c0 .6.4 1 1 1h4.3c.6 0 1 .4 1 1s-.5 1-1 1z"/><path d="m11.8 5.4h-6.6c-.6 0-1-.4-1-1s.4-1 1-1h6.6c.6 0 1 .4 1 1s-.4 1-1 1z"/><path d="m8.1 13.6h-2.9c-.6 0-1-.4-1-1s.4-1 1-1h2.9c.6 0 1 .4 1 1s-.4 1-1 1z"/><path d="m11.8 9.5h-6.6c-.6 0-1-.4-1-1s.4-1 1-1h6.6c.6 0 1 .4 1 1s-.4 1-1 1z"/><path d="m15.9 17.9c-.2 0-.5-.1-.7-.3l-4.7-4.3c-.4-.4-.4-1-.1-1.4.4-.4 1-.4 1.4-.1l4.7 4.3c.4.4.4 1 .1 1.4-.1.3-.4.4-.7.4z"/><path d="m11.3 17.9c-.3 0-.5-.1-.7-.3-.4-.4-.3-1 .1-1.4l4.7-4.3c.4-.4 1-.3 1.4.1s.3 1-.1 1.4l-4.7 4.3c-.3.1-.5.2-.7.2z"/></svg>