<svg xmlns="http://www.w3.org/2000/svg" viewBox="0 0 18 15.1"><path class="st0" d="M12.3 14.8H1.6c-.9 0-1.6-.7-1.6-1.6V1.6C0 .7.7 0 1.6 0h14.9c.9 0 1.6.7 1.6 1.6V8c0 .4-.3.7-.7.7s-.9-.3-.9-.7V1.6c0-.1 0-.1-.1-.1H1.6c-.1 0-.1 0-.1.1v11.6c0 .1 0 .1.1.1h7l-2.1-2c-.3-.3-.3-.7 0-1 .3-.3.7-.3 1 0l4.8 4.5z"/><path class="st0" d="M14.2 6.6H3.9c-.4 0-.7-.3-.7-.7 0-.4.3-.7.7-.7h10.3c.4 0 .7.3.7.7 0 .4-.3.7-.7.7zM15.2 12.4l-2.3-2.7 1.1-.9 1.2 1.3 1.1-1.3 1.1.9z"/><path class="st0" d="M13 11h4.1v1.5H13zM13 12.6h4.1v1.5H13z"/><path class="st0" d="M14.4 11.3h1.5v3.5h-1.5z"/></svg>