<?xml version="1.0" encoding="utf-8"?>
<!-- Generator: Adobe Illustrator 21.0.0, SVG Export Plug-In . SVG Version: 6.00 Build 0)  -->
<svg version="1.1" id="图层_1" xmlns="http://www.w3.org/2000/svg" xmlns:xlink="http://www.w3.org/1999/xlink" x="0px" y="0px"
	 viewBox="0 0 18 18" style="enable-background:new 0 0 18 18;" xml:space="preserve">
<path d="M17.2,6.9h-2.1c0-3.4-2.7-6.2-6.1-6.2C5.7,0.6,3,3.4,2.9,6.9H0.8C0.4,6.9,0,7.2,0,7.7v6c0,0.4,0.4,0.8,0.8,0.8h2.4
	c0.5,1.1,1.7,2.3,3.9,2.4c0.2,0.4,0.6,0.6,1.1,0.6H10c0.7,0,1.3-0.6,1.3-1.3V16c0-0.7-0.6-1.3-1.3-1.3H8.2c-0.6,0-1.1,0.4-1.2,0.9
	c-2.3-0.2-2.7-1.9-2.7-2.1V7.9h0v-1c0-2.7,2.1-5,4.8-5c2.6,0,4.8,2.2,4.8,5v0.8c0,0,0,0,0,0v6c0,0.4,0.4,0.8,0.8,0.8h2.6
	c0.5,0,0.8-0.4,0.8-0.8V7.7C18,7.2,17.6,6.9,17.2,6.9z M2.9,12.9c0,0.2-0.1,0.3-0.3,0.3h-1c-0.2,0-0.3-0.1-0.3-0.3V8.3
	c0-0.2,0.1-0.3,0.3-0.3h1c0.2,0,0.3,0.1,0.3,0.3V12.9z M16.7,12.9c0,0.2-0.1,0.3-0.3,0.3h-1c-0.2,0-0.3-0.1-0.3-0.3V8.4
	c0-0.2,0.1-0.3,0.3-0.3h1c0.2,0,0.3,0.1,0.3,0.3V12.9z"/>
</svg>
