<svg xmlns="http://www.w3.org/2000/svg" viewBox="0 0 18 18"><path d="M18 8.4l-3.4-6.1h-2.2V0H0v14.6C0 16.5 1.5 18 3.4 18s3.4-1.5 3.4-3.4v-.1h4.5v.1c0 1.9 1.5 3.4 3.4 3.4s3.4-1.5 3.4-3.4V8.4zM3.4 15.8c-.7 0-1.1-.4-1.1-1.1v-.1c0-.6.6-1 1.1-1s1.1.4 1.1 1v.1c0 .6-.5 1.1-1.1 1.1zm7-13.6v10.2H5.8c-.7-.7-1.6-1.2-2.6-1.2-.5 0-.8.1-1.2.2V7.8h3.6V4.3H2V2h8.4v.2zm4.2 13.6c-.7 0-1.1-.4-1.1-1.1v-.1c0-.6.6-1 1.1-1s1.1.4 1.1 1v.1c.1.6-.4 1.1-1.1 1.1zm1.5-4.4c-.4-.1-.8-.2-1.3-.2-1 0-1.9.4-2.5.9V4.4h1L16.1 9v2.4z"/></svg>