<svg xmlns="http://www.w3.org/2000/svg" viewBox="0 0 18 18"><path d="M17.2 6.9h-2.1C15.1 3.5 12.4.7 9 .7 5.7.6 3 3.4 2.9 6.9H.8c-.4 0-.8.3-.8.8v6c0 .4.4.8.8.8h2.4c.5 1.1 1.7 2.3 3.9 2.4.2.4.6.6 1.1.6H10c.7 0 1.3-.6 1.3-1.3V16c0-.7-.6-1.3-1.3-1.3H8.2c-.6 0-1.1.4-1.2.9-2.3-.2-2.7-1.9-2.7-2.1V6.9c0-2.7 2.1-5 4.8-5 2.6 0 4.8 2.2 4.8 5v6.8c0 .4.4.8.8.8h2.6c.5 0 .8-.4.8-.8v-6c-.1-.5-.5-.8-.9-.8zm-14.3 6c0 .2-.1.3-.3.3h-1c-.2 0-.3-.1-.3-.3V8.3c0-.2.1-.3.3-.3h1c.2 0 .3.1.3.3v4.6zm13.8 0c0 .2-.1.3-.3.3h-1c-.2 0-.3-.1-.3-.3V8.4c0-.2.1-.3.3-.3h1c.2 0 .3.1.3.3v4.5z"/></svg>