<?xml version="1.0" encoding="utf-8"?>
<!-- Generator: Adobe Illustrator 21.0.0, SVG Export Plug-In . SVG Version: 6.00 Build 0)  -->
<svg version="1.1" id="图层_1" xmlns="http://www.w3.org/2000/svg" xmlns:xlink="http://www.w3.org/1999/xlink" x="0px" y="0px"
	 viewBox="0 0 18 18" style="enable-background:new 0 0 18 18;" xml:space="preserve">
<path d="M9,3.5c1.3,0,2.5,0.3,3.5,0.9l1.8-1.2C12.8,2.1,11,1.5,9,1.5c-5,0-9,4-9,9c0,2,0.6,3.8,1.7,5.3l1.4-1.4
	C2.4,13.2,2,11.9,2,10.5C2,6.6,5.1,3.5,9,3.5z M16.3,5.2L15.1,7c0.6,1,0.9,2.2,0.9,3.5c0,1.4-0.4,2.7-1.2,3.8l1.4,1.4
	c1.2-1.4,1.8-3.2,1.8-5.2S17.4,6.7,16.3,5.2z"/>
<path d="M15.8,3.4l-8,5.5C7.3,9.3,7,9.9,7,10.5c0,1.1,0.9,2,2,2c0.6,0,1.2-0.3,1.6-0.8l5.5-7.9C16.3,3.5,16,3.2,15.8,3.4L15.8,3.4z"
	/>
</svg>
