<?xml version="1.0" encoding="utf-8"?>
<!-- Generator: Adobe Illustrator 21.0.0, SVG Export Plug-In . SVG Version: 6.00 Build 0)  -->
<svg version="1.1" id="图层_1" xmlns="http://www.w3.org/2000/svg" xmlns:xlink="http://www.w3.org/1999/xlink" x="0px" y="0px"
	 viewBox="0 0 18 18" style="enable-background:new 0 0 18 18;" xml:space="preserve">
<path d="M18,8.4l-3.4-6.1h-2.2V0H0v14.6C0,16.5,1.5,18,3.4,18s3.4-1.5,3.4-3.4v-0.1h4.5v0.1c0,1.9,1.5,3.4,3.4,3.4s3.4-1.5,3.4-3.4
	V8.4z M3.4,15.8c-0.7,0-1.1-0.4-1.1-1.1v-0.1c0-0.6,0.6-1,1.1-1s1.1,0.4,1.1,1v0.1C4.5,15.3,4,15.8,3.4,15.8z M10.4,2.2v10.2H5.8
	c-0.7-0.7-1.6-1.2-2.6-1.2c-0.5,0-0.8,0.1-1.2,0.2V7.8h3.6V4.3H2V2h8.4V2.2z M14.6,15.8c-0.7,0-1.1-0.4-1.1-1.1v-0.1
	c0-0.6,0.6-1,1.1-1s1.1,0.4,1.1,1v0.1C15.8,15.3,15.3,15.8,14.6,15.8z M16.1,11.4c-0.4-0.1-0.8-0.2-1.3-0.2c-1,0-1.9,0.4-2.5,0.9
	V4.4h1L16.1,9V11.4L16.1,11.4z"/>
</svg>
