<?xml version="1.0" encoding="utf-8"?>
<!-- Generator: Adobe Illustrator 21.0.0, SVG Export Plug-In . SVG Version: 6.00 Build 0)  -->
<svg version="1.1" id="图层_1" xmlns="http://www.w3.org/2000/svg" xmlns:xlink="http://www.w3.org/1999/xlink" x="0px" y="0px"
	 viewBox="0 0 18 18" style="enable-background:new 0 0 18 18;" xml:space="preserve">
<g>
	<g>
		<path d="M9,11.7c-2.4,0-4.4-2-4.4-4.4V4.4C4.6,2,6.6,0,9,0c2.4,0,4.4,2,4.4,4.4v2.9C13.4,9.7,11.5,11.7,9,11.7z M9,1.3
			c-1.7,0-3.1,1.4-3.1,3.1v2.9c0,1.7,1.4,3.1,3.1,3.1h0c1.7,0,3.1-1.4,3.1-3.1V4.4C12.1,2.7,10.7,1.3,9,1.3z"/>
	</g>
	<g>
		<path class="st0" d="M16.1,18H1.9c-1,0-1.9-0.8-1.9-1.9v-1.1c0-2.5,2.1-4.6,4.6-4.6h8.8c2.5,0,4.6,2.1,4.6,4.6v1.1
			C18,17.2,17.2,18,16.1,18z M4.6,11.8c-1.8,0-3.3,1.5-3.3,3.3v1.1c0,0.3,0.3,0.6,0.6,0.6h14.2c0.3,0,0.6-0.3,0.6-0.6v-1.1
			c0-1.8-1.5-3.3-3.3-3.3H4.6z"/>
	</g>
</g>
</svg>
