<?xml version="1.0" encoding="utf-8"?>
<!-- Generator: Adobe Illustrator 21.0.0, SVG Export Plug-In . SVG Version: 6.00 Build 0)  -->
<svg version="1.1" id="图层_1" xmlns="http://www.w3.org/2000/svg" xmlns:xlink="http://www.w3.org/1999/xlink" x="0px" y="0px"
	 viewBox="0 0 18 18" style="enable-background:new 0 0 18 18;" xml:space="preserve">
<path d="M10.7,1.6C10.7,0.7,9.9,0,9,0C8.1,0,7.3,0.7,7.3,1.6c0,0.1,0,0.2,0,0.2C5,2.6,3.1,5,3.1,7.8V10c0,0,0,3.2-0.8,3.2
	c-0.5,0-0.9,0.4-0.9,0.8s0.4,0.8,0.8,0.8h13.3c0.4,0,0.8-0.4,0.8-0.8s-0.4-0.8-0.8-0.8c-0.8,0-0.8-3.2-0.8-3.2V7.8
	c0-2.8-1.7-5.2-4.2-5.9C10.7,1.8,10.7,1.7,10.7,1.6z M11.5,15.6c0,1.3-1.1,2.4-2.5,2.4s-2.5-1.1-2.5-2.4H11.5z"/>
</svg>
