<svg xmlns="http://www.w3.org/2000/svg" viewBox="0 0 18 18"><path d="M5 2.9h.5c.4 0 .7-.3.7-.7V.7c0-.3-.3-.7-.7-.7H5c-.4 0-.7.4-.7.7v1.5c0 .4.3.7.7.7zm7.9 0h.5c.4 0 .7-.3.7-.7V.7c0-.4-.3-.7-.7-.7h-.5c-.4 0-.7.3-.7.7v1.5c-.1.4.3.7.7.7z"/><path d="M16.1 1.4h-1.5v1.2c0 .6-.5 1.1-1.1 1.1h-.7c-.6 0-1.1-.5-1.1-1.1V1.4h-5v1.1c0 .6-.5 1.1-1.1 1.1h-.7c-.6 0-1.1-.5-1.1-1.1V1.4H2.2c-.6 0-1.1.5-1.1 1.1v14.3c0 .6.5 1.1 1.1 1.1h13.9c.6 0 1.1-.5 1.1-1.1V2.5c0-.6-.5-1.1-1.1-1.1zm-4 10.6H9.8v1.4c0 .4-.3.6-.6.6s-.6-.3-.6-.6V12H6.1c-.4 0-.6-.3-.6-.6s.3-.6.6-.6h2.4V9.3H6.1c-.4 0-.6-.3-.6-.6s.2-.7.6-.7h1.6L6.4 6.8c-.3-.3-.3-.7 0-.9.3-.3.7-.3.9 0l1.8 1.8 1.8-1.8c.3-.3.7-.3.9 0s.3.7 0 .9L10.6 8h1.5c.4 0 .6.3.6.6s-.3.6-.6.6H9.8v1.4h2.4c.4 0 .6.3.6.6s-.3.8-.7.8z"/></svg>