<svg xmlns="http://www.w3.org/2000/svg" viewBox="0 0 18 18"><path d="M9 11.7c-2.4 0-4.4-2-4.4-4.4V4.4C4.6 2 6.6 0 9 0c2.4 0 4.4 2 4.4 4.4v2.9c0 2.4-1.9 4.4-4.4 4.4zM9 1.3c-1.7 0-3.1 1.4-3.1 3.1v2.9c0 1.7 1.4 3.1 3.1 3.1 1.7 0 3.1-1.4 3.1-3.1V4.4c0-1.7-1.4-3.1-3.1-3.1z"/><path class="st0" d="M16.1 18H1.9c-1 0-1.9-.8-1.9-1.9V15c0-2.5 2.1-4.6 4.6-4.6h8.8c2.5 0 4.6 2.1 4.6 4.6v1.1c0 1.1-.8 1.9-1.9 1.9zM4.6 11.8c-1.8 0-3.3 1.5-3.3 3.3v1.1c0 .3.3.6.6.6h14.2c.3 0 .6-.3.6-.6v-1.1c0-1.8-1.5-3.3-3.3-3.3H4.6z"/></svg>