<?xml version="1.0" encoding="utf-8"?>
<!-- Generator: Adobe Illustrator 21.0.0, SVG Export Plug-In . SVG Version: 6.00 Build 0)  -->
<svg version="1.1" id="图层_1" xmlns="http://www.w3.org/2000/svg" xmlns:xlink="http://www.w3.org/1999/xlink" x="0px" y="0px"
	 viewBox="0 0 18 15.1" style="enable-background:new 0 0 18 15.1;" xml:space="preserve">
<g>
	<path class="st0" d="M12.3,14.8H1.6c-0.9,0-1.6-0.7-1.6-1.6V1.6c0-0.9,0.7-1.6,1.6-1.6h14.9c0.9,0,1.6,0.7,1.6,1.6V8
		c0,0.4-0.3,0.7-0.7,0.7S16.5,8.4,16.5,8V1.6c0-0.1,0-0.1-0.1-0.1H1.6c-0.1,0-0.1,0-0.1,0.1v11.6c0,0.1,0,0.1,0.1,0.1h7l-2.1-2
		c-0.3-0.3-0.3-0.7,0-1c0.3-0.3,0.7-0.3,1,0L12.3,14.8z"/>
</g>
<g>
	<path class="st0" d="M14.2,6.6H3.9c-0.4,0-0.7-0.3-0.7-0.7c0-0.4,0.3-0.7,0.7-0.7h10.3c0.4,0,0.7,0.3,0.7,0.7
		C14.9,6.3,14.6,6.6,14.2,6.6z"/>
</g>
<g>
	<polygon class="st0" points="15.2,12.4 12.9,9.7 14,8.8 15.2,10.1 16.3,8.8 17.4,9.7 	"/>
</g>
<g>
	<rect x="13" y="11" class="st0" width="4.1" height="1.5"/>
</g>
<g>
	<rect x="13" y="12.6" class="st0" width="4.1" height="1.5"/>
</g>
<g>
	<rect x="14.4" y="11.3" class="st0" width="1.5" height="3.5"/>
</g>
</svg>
