<?xml version="1.0" encoding="utf-8"?>
<!-- Generator: Adobe Illustrator 21.0.0, SVG Export Plug-In . SVG Version: 6.00 Build 0)  -->
<svg version="1.1" id="图层_1" xmlns="http://www.w3.org/2000/svg" xmlns:xlink="http://www.w3.org/1999/xlink" x="0px" y="0px"
	 viewBox="0 0 20 20" style="enable-background:new 0 0 20 20;" xml:space="preserve">
<path d="M10.2,0L1.9,1.8v9.3c0,1,0.2,2,0.5,2.8v0l0,0c0.6,1.4,1.5,2.5,2.7,3.3l4.5,2.5l0,0c0.3,0.2,0.7,0.1,1,0l4.5-2.5l0,0
	c2-1.3,3.3-3.6,3.3-6.2V1.8L10.2,0z M17.3,11.2c0,2-1,3.9-2.6,5l-4.5,2.5c0,0,0,0,0,0V9.2H3.1V2.9l7.1-1.5l0,0v7.8h7.1L17.3,11.2
	L17.3,11.2L17.3,11.2z"/>
</svg>
