<?xml version="1.0" encoding="utf-8"?>
<!-- Generator: Adobe Illustrator 21.0.0, SVG Export Plug-In . SVG Version: 6.00 Build 0)  -->
<svg version="1.1" id="图层_1" xmlns="http://www.w3.org/2000/svg" xmlns:xlink="http://www.w3.org/1999/xlink" x="0px" y="0px"
	 viewBox="0 0 18 18" style="enable-background:new 0 0 18 18;" xml:space="preserve">
<g>
	<path d="M5,2.9h0.5c0.4,0,0.7-0.3,0.7-0.7V0.7C6.2,0.4,5.9,0,5.5,0H5C4.6,0,4.3,0.4,4.3,0.7v1.5C4.3,2.6,4.6,2.9,5,2.9z"/>
	<path d="M12.9,2.9h0.5c0.4,0,0.7-0.3,0.7-0.7V0.7c0-0.4-0.3-0.7-0.7-0.7h-0.5c-0.4,0-0.7,0.3-0.7,0.7v1.5
		C12.1,2.6,12.5,2.9,12.9,2.9z"/>
	<path d="M16.1,1.4h-1.5v1.2c0,0.6-0.5,1.1-1.1,1.1h-0.7c-0.6,0-1.1-0.5-1.1-1.1V1.4H6.7v1.1c0,0.6-0.5,1.1-1.1,1.1H4.9
		c-0.6,0-1.1-0.5-1.1-1.1V1.4H2.2c-0.6,0-1.1,0.5-1.1,1.1v14.3c0,0.6,0.5,1.1,1.1,1.1h13.9c0.6,0,1.1-0.5,1.1-1.1V2.5
		C17.2,1.9,16.7,1.4,16.1,1.4z M12.1,12H9.8v1.4c0,0.4-0.3,0.6-0.6,0.6s-0.6-0.3-0.6-0.6V12H6.1c-0.4,0-0.6-0.3-0.6-0.6
		s0.3-0.6,0.6-0.6h2.4V9.3H6.1c-0.4,0-0.6-0.3-0.6-0.6S5.7,8,6.1,8h1.6L6.4,6.8c-0.3-0.3-0.3-0.7,0-0.9c0.3-0.3,0.7-0.3,0.9,0
		l1.8,1.8l1.8-1.8c0.3-0.3,0.7-0.3,0.9,0s0.3,0.7,0,0.9L10.6,8h1.5c0.4,0,0.6,0.3,0.6,0.6s-0.3,0.6-0.6,0.6H9.8v1.4h2.4
		c0.4,0,0.6,0.3,0.6,0.6S12.5,12,12.1,12z"/>
</g>
</svg>
