<svg xmlns="http://www.w3.org/2000/svg" viewBox="0 0 18 18"><path d="M15.3 4.8c-.8-2-2.2-4.8-7-4.8S.5 4.2.5 7c0 3.8 2.5 6.2 2.5 7v3.7s.1.3.4.3h8.4c.4 0 .5-.3.5-.3v-2.3s1.2.1 2.3-.6c1.2-.8 1.1-2 1.1-2v-1.7c.6-.2 1.9-.8 2-1.4-.1-.5-1.6-2.9-2.4-4.9zM9.2 6c-.5 0-.9-.3-1.2-.7l-1.4.6c.1.2.1.5.1.7 0 .5-.2.9-.4 1.2l1.8 1.5c.2-.1.4-.2.6-.2.6 0 1 .5 1 1s-.5 1-1 1-1-.5-1-1c0-.2.1-.3.1-.4L6 8.2c-.4.4-1 .7-1.6.7-1.3 0-2.2-1-2.2-2.2 0-1.3 1-2.2 2.2-2.2.9 0 1.6.5 1.9 1.2L7.8 5c0-.1-.1-.2-.1-.3 0-.8.7-1.4 1.4-1.4.8 0 1.4.7 1.4 1.4S10.1 6 9.2 6z"/></svg>