<?xml version="1.0" encoding="utf-8"?>
<!-- Generator: Adobe Illustrator 21.0.0, SVG Export Plug-In . SVG Version: 6.00 Build 0)  -->
<svg version="1.1" id="图层_1" xmlns="http://www.w3.org/2000/svg" xmlns:xlink="http://www.w3.org/1999/xlink" x="0px" y="0px"
	 viewBox="0 0 18 18" style="enable-background:new 0 0 18 18;" xml:space="preserve">
<path d="M15.3,4.8c-0.8-2-2.2-4.8-7-4.8S0.5,4.2,0.5,7c0,3.8,2.5,6.2,2.5,7v3.7c0,0,0.1,0.3,0.4,0.3h8.4c0.4,0,0.5-0.3,0.5-0.3v-2.3
	c0,0,1.2,0.1,2.3-0.6c1.2-0.8,1.1-2,1.1-2v-1.7c0.6-0.2,1.9-0.8,2-1.4C17.6,9.2,16.1,6.8,15.3,4.8L15.3,4.8z M9.2,6
	C8.7,6,8.3,5.7,8,5.3L6.6,5.9c0.1,0.2,0.1,0.5,0.1,0.7c0,0.5-0.2,0.9-0.4,1.2l1.8,1.5c0.2-0.1,0.4-0.2,0.6-0.2c0.6,0,1,0.5,1,1
	c0,0.5-0.5,1-1,1c-0.5,0-1-0.5-1-1c0-0.2,0.1-0.3,0.1-0.4L6,8.2c-0.4,0.4-1,0.7-1.6,0.7c-1.3,0-2.2-1-2.2-2.2c0-1.3,1-2.2,2.2-2.2
	c0.9,0,1.6,0.5,1.9,1.2L7.8,5c0-0.1-0.1-0.2-0.1-0.3c0-0.8,0.7-1.4,1.4-1.4c0.8,0,1.4,0.7,1.4,1.4S10.1,6,9.2,6L9.2,6z"/>
</svg>
