<?xml version="1.0" encoding="utf-8"?>
<!-- Generator: Adobe Illustrator 21.0.0, SVG Export Plug-In . SVG Version: 6.00 Build 0)  -->
<svg version="1.1" id="图层_1" xmlns="http://www.w3.org/2000/svg" xmlns:xlink="http://www.w3.org/1999/xlink" x="0px" y="0px"
	 viewBox="0 0 18 18" style="enable-background:new 0 0 18 18;" xml:space="preserve">
<path d="M17.2,2.3H0.8C0.4,2.3,0,2.6,0,3.1v12.2c0,0.4,0.4,0.8,0.8,0.8h16.4c0.4,0,0.8-0.4,0.8-0.8V3.1C18,2.6,17.6,2.3,17.2,2.3z
	 M15.2,11.4L15.2,11.4L15.2,11.4l-7.1,0l0,0.6v1.3l0,0l0,0L4.6,11L3,10h7.5l4.7,0v0h0V11.4z M15.2,8.1L15.2,8.1l-12.1,0l0,0h0V6.8
	h7.1V4.9l0,0v0l0.1,0L15.2,8.1L15.2,8.1z"/>
</svg>
