<svg id="i1" data-name="i1 1" xmlns="http://www.w3.org/2000/svg" viewBox="0 0 503.31 112.67"><defs><style>.cls-1{fill:#fff}.cls-2{fill:#cbe3f7}</style></defs><path class="cls-1" d="M218.5 90.19h-14.08l-4.63-21.58-6.28 21.58h-13.87l-12.1-38.86h11.74l8.01 26.32 7.29-26.32h10.76l7.02 26.32 7.74-26.32h11.47L218.5 90.19zM237.29 51.33h11.5v38.86h-11.5zM282.08 90.19h11.62s.06-23.77 0-23.83c.06-26-35.21-12.69-35.21-12.69v36.52H270V61.32s12-3.2 12 4.39zM303.67 51.33h23.42v9.93h-23.42z"/><path class="cls-1" d="M327.29 83.83s1.21 5.42 1.07 5.47c-24.54 7.87-24.69-8.23-24.69-8.23V37.91l11.2-3.91v43.65s.86 7 11.66 2.71zM352.3 50.61h-4.42a16.21 16.21 0 00-16.16 16.16v8a16.21 16.21 0 0016.16 16.16h4.42a16.21 16.21 0 0016.16-16.16v-8a16.21 16.21 0 00-16.16-16.16zm4.7 25.62a5.91 5.91 0 01-5.89 5.89h-1.61a5.91 5.91 0 01-5.89-5.89V65.5a5.91 5.91 0 015.89-5.89h1.61A5.91 5.91 0 01357 65.5zM414 65.4c-1.73-23.49-36-12.23-36-12.23V105h11.71V89.72s21 8.81 24.35-14.18A46.08 46.08 0 00414 65.4zm-11.37 9.46a6.87 6.87 0 01-6.87 6.87h-1.6a4.81 4.81 0 01-4.81-4.81V61.83a1.21 1.21 0 011.21-1.21h7.12a4.94 4.94 0 014.94 4.94zM480.12 105.04h-13.07l6.49-13.41-13.34-40.3h11.56l8.36 26.32 8.36-26.32h11.56l-19.92 53.71zM422.35 52.9L424 62s22.88-7.26 20.39 5c0 0-18.38-4.51-22.05 4.92 0 0-6.52 17.63 9.19 18.86a65 65 0 0014.92-.26l6.22-1.49a22.28 22.28 0 002.81-.79V60.51S454 44.52 422.35 52.9zm22 29.56h-7.47a3.81 3.81 0 01-3.88-3.81v-1.07a3.81 3.81 0 013.81-3.81h7.37a.58.58 0 01.56.57l.08 7.54a.58.58 0 01-.49.58zM248.79 44.02l-11.5 2.7V36.7l11.5-2.7v10.02zM68.09 103.89H35.67L2.1 25.23h24.94l24.92 57.71L87.11 3.97h25.28l-44.3 99.92z"/><path class="cls-2" d="M117.32 103.89H85.66l-6.53-15.17 12.14-27.77 10.32 20.63 25.04-56.35h25.28l-34.59 78.66zM62.05 49.04l10.93-23.81H51.59l10.46 23.81z"/></svg>
