<svg id="图层_1" data-name="图层 1" xmlns="http://www.w3.org/2000/svg" viewBox="0 0 336.5 74.84"><defs><style>.cls-1{fill:#231915}</style></defs><path class="cls-1" d="M52.66 59.17H38.59l-4.63-21.58-6.28 21.58H13.81L1.71 20.31h11.74l8 26.32 7.3-26.32H39.5l7.03 26.32 7.74-26.32h11.47L52.66 59.17zM71.46 20.31h11.5v38.86h-11.5zM116.24 59.17h11.62s.06-23.77 0-23.83c.06-26-35.21-12.69-35.21-12.69v36.52h11.56V30.3s12-3.2 12 4.39zM137.84 20.31h23.42v9.93h-23.42z"/><path class="cls-1" d="M161.45 52.81s1.21 5.42 1.07 5.47c-24.54 7.87-24.69-8.23-24.69-8.23V6.89L149 3v43.63s.86 7 11.66 2.71zM186.47 19.59h-4.42a16.21 16.21 0 00-16.16 16.16v8a16.21 16.21 0 0016.16 16.16h4.42a16.21 16.21 0 0016.16-16.16v-8a16.21 16.21 0 00-16.16-16.16zm4.65 25.61a5.91 5.91 0 01-5.89 5.89h-1.61a5.91 5.91 0 01-5.89-5.89V34.49a5.91 5.91 0 015.89-5.89h1.61a5.91 5.91 0 015.89 5.89zM248.13 34.38c-1.73-23.49-36-12.23-36-12.23V74h11.71V58.7s21 8.81 24.35-14.18a46.07 46.07 0 00-.06-10.14zm-11.37 9.46a6.87 6.87 0 01-6.87 6.87h-1.6a4.81 4.81 0 01-4.81-4.81V30.81a1.21 1.21 0 011.21-1.21h7.12a4.94 4.94 0 014.94 4.94zM314.29 74.02h-13.08l6.5-13.41-13.34-40.3h11.56l8.36 26.32 8.35-26.32h11.56l-19.91 53.71zM256.51 21.88l1.66 9.12s22.88-7.26 20.39 5c0 0-18.38-4.51-22.05 4.92 0 0-6.52 17.63 9.19 18.86a65 65 0 0014.92-.26l6.22-1.49a22.28 22.28 0 002.81-.79V29.49s-1.48-15.99-33.14-7.61zm22 29.56H271a3.81 3.81 0 01-3.81-3.81v-1.07a3.81 3.81 0 013.81-3.81h7.37a.58.58 0 01.56.57l.08 7.54a.58.58 0 01-.52.58zM82.96 13l-11.5 2.7V5.68l11.5-2.7V13z"/></svg>