<svg id="图层_1" data-name="图层 1" xmlns="http://www.w3.org/2000/svg" viewBox="0 0 336.5 74.84"><defs><style>.cls-1{fill:#231915;}</style></defs><title>画板 2 副本 210</title><polygon class="cls-1" points="52.66 59.17 38.59 59.17 33.96 37.59 27.68 59.17 13.81 59.17 1.71 20.31 13.45 20.31 21.45 46.63 28.75 20.31 39.5 20.31 46.53 46.63 54.27 20.31 65.74 20.31 52.66 59.17"/><rect class="cls-1" x="71.46" y="20.31" width="11.5" height="38.86"/><path class="cls-1" d="M116.24,59.17h11.62s.06-23.77,0-23.83c.06-26-35.21-12.69-35.21-12.69V59.17h11.56l0-28.87s12-3.2,12,4.39Z"/><rect class="cls-1" x="137.84" y="20.31" width="23.42" height="9.93"/><path class="cls-1" d="M161.45,52.81s1.21,5.42,1.07,5.47c-24.54,7.87-24.69-8.23-24.69-8.23V6.89L149,3V46.63s.86,7,11.66,2.71Z"/><path class="cls-1" d="M186.47,19.59h-4.42a16.21,16.21,0,0,0-16.16,16.16v8a16.21,16.21,0,0,0,16.16,16.16h4.42a16.21,16.21,0,0,0,16.16-16.16v-8A16.21,16.21,0,0,0,186.47,19.59Zm4.65,25.61a5.91,5.91,0,0,1-5.89,5.89h-1.61a5.91,5.91,0,0,1-5.89-5.89V34.49a5.91,5.91,0,0,1,5.89-5.89h1.61a5.91,5.91,0,0,1,5.89,5.89Z"/><path class="cls-1" d="M248.13,34.38c-1.73-23.49-36-12.23-36-12.23V74h11.71V58.7s21,8.81,24.35-14.18A46.07,46.07,0,0,0,248.13,34.38Zm-11.37,9.46a6.87,6.87,0,0,1-6.87,6.87h-1.6a4.81,4.81,0,0,1-4.81-4.81V30.81a1.21,1.21,0,0,1,1.21-1.21h7.12a4.94,4.94,0,0,1,4.94,4.94Z"/><polygon class="cls-1" points="314.29 74.02 301.21 74.02 307.71 60.61 294.37 20.31 305.93 20.31 314.29 46.63 322.64 20.31 334.2 20.31 314.29 74.02"/><path class="cls-1" d="M256.51,21.88,258.17,31s22.88-7.26,20.39,5c0,0-18.38-4.51-22.05,4.92,0,0-6.52,17.63,9.19,18.86a65,65,0,0,0,14.92-.26l6.22-1.49a22.28,22.28,0,0,0,2.81-.79V29.49S288.17,13.5,256.51,21.88Zm22,29.56H271a3.81,3.81,0,0,1-3.81-3.81V46.56A3.81,3.81,0,0,1,271,42.75h7.37a.58.58,0,0,1,.56.57l.08,7.54A.58.58,0,0,1,278.49,51.44Z"/><polygon class="cls-1" points="82.96 13 71.46 15.7 71.46 5.68 82.96 2.98 82.96 13"/></svg>