<svg id="i1" data-name="i1 1" xmlns="http://www.w3.org/2000/svg" viewBox="0 0 503.31 112.67"><defs><style>.cls-1{fill:#231915;}.cls-2{fill:#009ddf;}.cls-3{fill:#003088;}</style></defs><title>2110</title><polygon class="cls-1" points="210.48 91.67 196.4 91.67 191.78 70.09 185.49 91.67 171.62 91.67 159.53 52.81 171.26 52.81 179.27 79.13 186.56 52.81 197.32 52.81 204.34 79.13 212.08 52.81 223.55 52.81 210.48 91.67"/><rect class="cls-1" x="229.27" y="52.81" width="11.5" height="38.86"/><path class="cls-1" d="M274.06,91.67h11.62s.06-23.77,0-23.83c.06-26-35.21-12.69-35.21-12.69V91.67H262l0-28.87s12-3.2,12,4.39Z"/><rect class="cls-1" x="295.65" y="52.81" width="23.42" height="9.93"/><path class="cls-1" d="M319.27,85.31s1.21,5.42,1.07,5.47c-24.54,7.87-24.69-8.23-24.69-8.23V39.39l11.2-3.91V79.13s.86,7,11.66,2.71Z"/><path class="cls-1" d="M344.28,52.09h-4.42A16.21,16.21,0,0,0,323.7,68.25v8a16.21,16.21,0,0,0,16.16,16.16h4.42a16.21,16.21,0,0,0,16.16-16.16v-8A16.21,16.21,0,0,0,344.28,52.09Zm4.65,25.61A5.91,5.91,0,0,1,343,83.6h-1.61a5.91,5.91,0,0,1-5.89-5.89V67a5.91,5.91,0,0,1,5.89-5.89H343A5.91,5.91,0,0,1,348.94,67Z"/><path class="cls-1" d="M405.94,66.88c-1.73-23.49-36-12.23-36-12.23v51.84h11.71V91.2S402.67,100,406,77A46.07,46.07,0,0,0,405.94,66.88Zm-11.37,9.46a6.87,6.87,0,0,1-6.87,6.87h-1.6a4.81,4.81,0,0,1-4.81-4.81V63.31a1.21,1.21,0,0,1,1.21-1.21h7.12A4.94,4.94,0,0,1,394.57,67Z"/><polygon class="cls-1" points="472.1 106.52 459.03 106.52 465.52 93.11 452.18 52.81 463.74 52.81 472.1 79.13 480.46 52.81 492.02 52.81 472.1 106.52"/><path class="cls-1" d="M414.33,54.38,416,63.51s22.88-7.26,20.39,5c0,0-18.38-4.51-22.05,4.92,0,0-6.52,17.63,9.19,18.86a65,65,0,0,0,14.92-.26l6.22-1.49a22.28,22.28,0,0,0,2.81-.79V62S446,46,414.33,54.38Zm22,29.56h-7.47A3.81,3.81,0,0,1,425,80.13V79.06a3.81,3.81,0,0,1,3.81-3.81h7.37a.58.58,0,0,1,.56.57l.08,7.54A.58.58,0,0,1,436.31,83.94Z"/><polygon class="cls-1" points="240.77 45.5 229.27 48.2 229.27 38.18 240.77 35.48 240.77 45.5"/><polygon class="cls-2" points="67.93 104.86 35.5 104.86 1.93 26.2 26.87 26.2 51.8 83.91 86.95 4.94 112.22 4.94 67.93 104.86"/><polygon class="cls-3" points="117.15 104.86 85.49 104.86 78.96 89.69 91.1 61.92 101.42 82.55 126.46 26.2 151.74 26.2 117.15 104.86"/><polygon class="cls-3" points="61.88 50.01 72.81 26.2 51.42 26.2 61.88 50.01"/></svg>
