<svg width="32px" height="9px" viewBox="0 0 32 9" xmlns="http://www.w3.org/2000/svg">
  <path d="M24.25 0l1.18 1.75L26.83 0H32l-3.88 4.63L32 9h-5.17l-1.4-1.75L24.25 9h-9.32V7.75L14.5 9h-2.67l-.45-1.25V9h-4.9l-.45-1.5H4.91L4.46 9H0l3.8-9h3.57l.43 1V0h4.46l.9 2.5.89-2.5h10.2zM6.47 1.25H4.68l-2.67 6.5h1.56L4 6.25h2.9l.45 1.5h3.12v-5l2 5h1.35l2-5v5h1.33l.01-6.5h-2.23l-1.78 4.5-1.79-4.5H9.14v6l-2.67-6zm11.82 6.5h5.47l1.67-2.25 1.83 2.25h1.94l-2.8-3.13 2.8-3.37h-1.94L25.43 3.5l-1.61-2.25h-5.53v6.5zm4.88-5l1.3 1.88-1.51 1.87h-3.23V5.25h3.01V4h-3.01V2.75h3.44zm-17.6-.5L6.47 5H4.46l1.11-2.75z" fill="#0193CE" fill-rule="evenodd"/>
</svg>
