<svg width="30px" height="12px" viewBox="0 0 30 12" xmlns="http://www.w3.org/2000/svg">
  <path d="M5.32 1.54c-.34.4-.88.72-1.43.68A2.14 2.14 0 0 1 5.82 0c.06.57-.16 1.13-.5 1.54m.5.79c-.8-.05-1.47.45-1.84.45-.39 0-.96-.43-1.59-.42-.8.01-1.57.47-1.98 1.2C-.44 5.04.19 7.22 1 8.4c.4.6.89 1.24 1.53 1.22.6-.03.84-.4 1.57-.4.73 0 .94.4 1.58.39.66-.02 1.07-.6 1.48-1.19.46-.67.64-1.32.66-1.36-.02 0-1.28-.5-1.29-1.95-.01-1.21 1-1.8 1.04-1.83a2.25 2.25 0 0 0-1.76-.95M10.38.68v8.86h1.38V6.51h1.9c1.75 0 2.97-1.2 2.97-2.92 0-1.73-1.2-2.91-2.92-2.91h-3.33zm1.38 1.16h1.59c1.2 0 1.87.63 1.87 1.75s-.68 1.77-1.88 1.77h-1.58V1.84zm7.38 7.77c.87 0 1.67-.44 2.03-1.13h.03v1.06h1.28V5.13c0-1.28-1.03-2.1-2.6-2.1-1.46 0-2.55.83-2.59 1.98h1.24c.1-.55.61-.9 1.3-.9.85 0 1.32.39 1.32 1.11v.49l-1.72.1c-1.6.1-2.46.75-2.46 1.89 0 1.15.9 1.91 2.17 1.91zm.37-1.05c-.73 0-1.2-.35-1.2-.9s.45-.88 1.31-.93l1.53-.1v.5c0 .84-.7 1.43-1.64 1.43zm4.67 3.4c1.34 0 1.97-.52 2.52-2.07l2.42-6.78h-1.4L26.1 8.35h-.03L24.45 3.1H23l2.33 6.46-.12.39c-.21.66-.55.92-1.16.92l-.4-.02v1.06c.07.02.41.03.52.03z"/>
</svg>
