<?xml version="1.0" encoding="UTF-8" standalone="no"?>
<!DOCTYPE svg PUBLIC "-//W3C//DTD SVG 1.1//EN" "http://www.w3.org/Graphics/SVG/1.1/DTD/svg11.dtd">
<svg width="100%" height="100%" viewBox="0 0 830 262" version="1.1" xmlns="http://www.w3.org/2000/svg" xmlns:xlink="http://www.w3.org/1999/xlink" xml:space="preserve" xmlns:serif="http://www.serif.com/" style="fill-rule:evenodd;clip-rule:evenodd;stroke-linejoin:round;stroke-miterlimit:2;">
    <g transform="matrix(1,0,0,1,-128.8,-349.141)">
        <g transform="matrix(1,0,0,1,432,205.1)">
            <g transform="matrix(0.322353,0,0,0.322353,-429.82,-1.96464)">
                <path d="M442.321,713.804L555.534,713.804C584.029,713.804 608.658,744.646 601.732,786.538C594.793,828.444 566.312,845.071 566.312,845.071C566.312,845.071 581.824,850.596 590.059,868.858C595.935,881.918 597.815,901.528 589.424,927.273C578.724,960.1 549.775,984.224 518.181,984.224L406.524,984.224C398.846,984.224 390.364,982.628 393.451,966.027C395.941,952.629 420.026,751.779 423.087,732.792C424.747,722.533 428.171,713.804 442.321,713.804ZM489.284,773.115L482.748,816.589L513.927,816.589C525.081,816.589 530.697,805.267 533.174,797.641C536.274,788.134 536.274,773.128 520.853,773.128L489.284,773.115ZM474.33,873.812L466.548,927.066C466.548,927.066 494.381,927.351 503.11,927.066C514.549,926.677 522.163,914.68 524.99,904.965C528.492,892.89 528.492,873.812 510.97,873.812L474.33,873.812ZM817.484,971.578C815.552,958.518 783.62,733.972 782.077,727.643C780.546,721.313 776.681,713.804 768.212,713.804L698.149,713.804C691.976,713.804 685.828,714.595 681.963,723.285C678.124,731.988 587.634,962.875 584.158,970.372C580.695,977.881 584.132,984.211 592.64,984.211L645.012,984.211C652.327,984.211 657.347,985.378 661.186,975.119C662.872,970.631 670.29,948.038 679.369,920.27C680.173,919.206 681.691,918.169 684.661,918.169L728.953,918.169C730.198,918.169 730.976,918.999 731.611,920.023C733.998,949.127 735.891,972.603 735.891,974.315C735.891,979.062 739.354,984.211 748.2,984.211L808.665,984.211C814.787,984.224 819.054,981.837 817.484,971.578ZM724.699,858.884C720.315,858.702 708.136,858.884 703.519,858.884C700.925,858.884 700.328,857.405 700.38,855.875C706.431,837.244 712.539,818.632 718.707,800.04C720.315,795.241 721.638,799.988 721.638,799.988C721.638,799.988 723.791,825.655 726.411,857.25C726.073,858.17 725.606,858.936 724.699,858.884ZM855.693,726.06C854.137,738.719 826.81,957.324 825.642,964.847C824.501,972.356 826.433,984.224 838.755,984.224L874.175,984.224C879.181,984.224 892.255,985.002 894.953,966.027C897.65,947.065 907.053,878.572 908.428,871.957C909.596,866.419 914.965,867.197 915.743,869.986C916.521,872.735 950.723,961.332 953.472,967.233C958.479,977.907 962.344,984.25 970.411,984.25L1008.53,984.25C1015.84,984.25 1023.55,982.654 1025.47,967.622C1027.39,952.616 1054.74,739.925 1056.27,729.64C1057.8,719.368 1051.65,713.83 1042.03,713.83L1003.13,713.83C994.677,713.83 989.658,711.469 987.349,724.893C985.041,738.343 975.261,804.061 974.276,808.704C973.498,812.257 969.269,812.257 968.102,809.093C964.938,800.429 939.608,735.567 935.769,725.697C931.904,715.801 929.232,713.83 920.75,713.83L874.175,713.83C862.217,713.804 857.224,713.415 855.693,726.06ZM1222.27,713.596L1124.86,713.596C1088.66,713.596 1073.64,734.556 1063.24,776.85C1055.06,810.169 1046.48,900.997 1047.06,918.778C1048.23,953.187 1052.08,984.003 1084.43,984.003C1116.76,984.003 1175.67,984.392 1186.46,984.003C1197.24,983.614 1203.39,979.256 1206.86,968.997C1210.52,958.128 1211.07,950.8 1211.87,941.32C1212.65,932.228 1213.01,923.927 1201.47,923.927L1144.87,923.927C1134.34,923.927 1119.07,923.123 1118.68,905.341C1118.29,887.547 1119.46,867.016 1122.52,846.835C1125.61,826.693 1129.96,802.608 1134.45,788.73C1140.64,769.743 1148.72,770.158 1162.21,770.158L1220.73,770.158C1229.96,770.158 1234.22,764.594 1236.5,756.332C1238.83,748.018 1240.47,735.01 1240.75,726.67C1241.14,715.179 1237.65,713.596 1222.27,713.596ZM2086.91,713.804L1936.78,713.804C1925.78,713.804 1920.54,713.337 1918.67,725.075C1916.6,738.573 1914.61,752.084 1912.69,765.605C1911.55,773.88 1914.61,774.684 1922.31,774.684L1961.6,774.684C1965.05,774.684 1965.42,776.655 1964.66,782.194C1963.89,787.732 1941.88,964.354 1940.8,971.15C1938.88,983.017 1940,984.211 1950.04,984.211C1958.5,984.211 1988.16,984.444 1996.23,984.211C2009.35,983.796 2011.25,986.96 2014.36,970.761C2017.39,954.549 2038.58,782.583 2038.58,779.029C2038.58,775.475 2039.74,774.269 2045.16,774.269C2050.51,774.269 2082.88,773.88 2088.25,774.269C2093.64,774.684 2095.95,771.519 2096.73,767.162C2097.52,762.83 2099.21,734.569 2099.21,729.018C2099.22,718.745 2098.09,713.804 2086.91,713.804ZM1410.23,933.019C1400.27,974.431 1375.2,984.016 1351.68,984.016L1263.5,984.016C1231.17,984.016 1224.8,952.811 1225.4,918.402C1225.94,885.576 1233.7,814.359 1241.57,776.85C1250.49,734.205 1267.76,713.596 1303.95,713.596L1389.78,713.596C1414.44,713.596 1432.33,727.02 1432.54,757.901C1432.86,803.788 1425.59,868.961 1410.23,933.019ZM1327.91,771.532C1316.74,772.311 1311.64,778.134 1309.44,787.343C1304.1,809.495 1294.69,874.875 1293.25,906.729C1292.64,919.855 1299.51,922.397 1307.5,924.135C1315.23,925.769 1323.79,926.417 1330.24,924.913C1337.59,923.201 1342.55,921.074 1345.63,909.09C1353.38,878.844 1359.5,829.196 1362.16,793.646C1362.69,786.785 1362.03,774.074 1351.8,772.298C1342.64,770.741 1339.08,770.715 1327.91,771.532ZM1472.42,713.804C1467.02,713.804 1459.32,716.164 1456.61,731.988C1453.92,747.798 1423.98,960.515 1422.36,971.578C1421.19,979.464 1426.21,984.224 1434.29,984.224L1479.73,984.224C1490.9,984.224 1494.35,982.628 1497.04,968.011C1499.75,953.369 1512.46,858.495 1512.85,854.539C1513.22,850.583 1516.32,851.763 1516.7,854.928C1517.07,858.093 1528.63,912.254 1529.41,917.014C1530.15,921.748 1531.72,926.495 1535.57,926.884C1539.39,927.273 1570.57,926.884 1572.91,926.884C1575.22,926.884 1579.07,927.688 1582.91,921.748C1587.34,914.926 1614.88,857.327 1615.63,854.941C1616.42,852.58 1620.62,851.387 1620.24,854.552C1619.88,857.716 1604.66,963.29 1603.7,969.581C1602.53,977.103 1607.17,984.224 1614.87,984.224C1622.54,984.224 1658,984.457 1663.76,984.224C1673.38,983.809 1677.24,981.448 1681.09,960.878C1683.37,948.751 1707.29,738.719 1708.04,731.598C1709.21,720.924 1705.71,713.804 1694.94,713.804L1634.13,713.804C1627.19,713.804 1621.03,715.775 1617.17,722.507C1610.82,733.57 1576.94,799.573 1574.82,803.153C1571.73,808.289 1566.74,807.9 1565.19,801.959C1563.65,796.032 1552.09,736.332 1550.57,728.836C1549.01,721.301 1549.41,713.869 1533.62,713.791C1513.99,713.7 1477.79,713.804 1472.42,713.804ZM1920.77,971.371C1918.85,958.336 1886.93,733.777 1885.36,727.435C1883.85,721.119 1879.97,713.596 1871.51,713.596L1801.45,713.596C1795.29,713.596 1789.14,714.401 1785.26,723.103C1781.41,731.793 1690.96,962.668 1687.48,970.164C1684.01,977.674 1687.46,984.003 1695.94,984.003L1748.3,984.003C1755.61,984.003 1760.63,985.196 1764.49,974.911C1766.16,970.45 1773.58,947.856 1782.67,920.101C1783.46,919.038 1784.98,918 1787.96,918L1832.24,918C1833.48,918 1834.26,918.83 1834.9,919.855C1837.28,948.959 1839.18,972.408 1839.18,974.12C1839.18,978.867 1842.63,984.016 1851.49,984.016L1911.92,984.016C1918.09,984.016 1922.34,981.656 1920.77,971.371ZM1827.97,858.702C1823.59,858.495 1811.43,858.702 1806.82,858.702C1804.21,858.702 1803.6,857.185 1803.65,855.654C1809.72,837.041 1815.83,818.442 1821.99,799.858C1823.59,795.034 1824.91,799.794 1824.91,799.794C1824.91,799.794 1827.09,825.461 1829.7,857.042C1829.37,857.976 1828.89,858.754 1827.97,858.702Z" style="fill:rgb(66,90,136);"/>
            </g>
        </g>
        <g transform="matrix(1,0,0,1,432,205.1)">
            <g transform="matrix(0.322353,0,0,0.322353,0.912405,-199.258)">
                <path d="M1620.34,1497.55C1634.86,1482.91 1634.86,1458.95 1620.34,1444.31L1254.55,1076.01C1247.57,1068.95 1238.04,1064.98 1228.11,1064.98C1218.18,1064.98 1208.66,1068.95 1201.67,1076.01L835.927,1444.3C821.409,1458.94 821.409,1482.9 835.927,1497.54L1201.67,1865.86C1208.66,1872.91 1218.19,1876.88 1228.11,1876.88C1238.04,1876.88 1247.57,1872.91 1254.55,1865.86L1620.34,1497.55Z" style="fill:rgb(160,158,169);"/>
            </g>
        </g>
        <g transform="matrix(1,0,0,1,432,205.1)">
            <g transform="matrix(0.322353,0,0,0.322353,0.912405,-199.258)">
                <path d="M1604.9,1459.84L1239.14,1091.54C1236.24,1088.6 1232.27,1086.94 1228.13,1086.94C1224,1086.94 1220.03,1088.6 1217.12,1091.54L851.335,1459.84C845.277,1465.94 845.277,1475.93 851.335,1482.03L1217.12,1850.32C1220.03,1853.26 1224,1854.92 1228.13,1854.92C1232.27,1854.92 1236.24,1853.26 1239.14,1850.32L1604.92,1482.03C1610.95,1475.92 1610.95,1465.94 1604.9,1459.84ZM1448.61,1505.18C1444.86,1502 1440.75,1499.29 1436.35,1497.1C1428.52,1493.4 1421.58,1492.13 1411.32,1492L1347.69,1492C1363.19,1501.73 1376.24,1514.91 1385.81,1530.51C1395.16,1545.98 1401.14,1563.31 1402.29,1581.48C1403.39,1597.08 1401.08,1612.72 1395.51,1627.33C1389.02,1644.07 1379.11,1659.22 1365.11,1670.6C1354.13,1679.47 1341.09,1685.01 1327.82,1689.17C1314.05,1693.45 1299.88,1695.3 1285.43,1695.3L1084.38,1695.3L1114.65,1628.83L1246.39,1628.83C1257.28,1628.83 1268.59,1625.97 1277.69,1620.3C1284.63,1615.89 1292.49,1608.52 1296.41,1601.58C1303.93,1589.2 1307.38,1575.8 1306.56,1561.05C1305.87,1548.54 1303.93,1538.12 1296.99,1527.84C1291.11,1518.97 1283.62,1510.06 1274.55,1504.4C1262.57,1496.88 1246.41,1491.94 1232.08,1491.94L1088.21,1491.94L1116.37,1422.91L1232.56,1422.91C1247.21,1422.91 1261.54,1418.31 1273.77,1410.8C1281.79,1406.15 1288.78,1399.94 1294.34,1392.54C1302.62,1381.33 1307.43,1367.94 1308.19,1354.03C1309.13,1339.26 1306.44,1324.13 1297.78,1311.78C1292.62,1304.23 1286.81,1297.31 1278.83,1292.93C1273.76,1289.58 1260.62,1283.92 1247.44,1284.47L1091.2,1284.75L1119.93,1215.62L1282.79,1215.62C1297.78,1215.62 1312.8,1217.33 1327.14,1221.84C1343.97,1227.29 1360.28,1235.37 1372.99,1247.74C1383.32,1257.86 1391.48,1269.97 1396.99,1283.33C1402.89,1297.66 1406.26,1312.77 1405.42,1328.3C1404.63,1344.01 1399.19,1358.89 1392.27,1372.9C1382.23,1392.65 1367.37,1409.55 1349.05,1422.02L1388.89,1422.02C1397.82,1422.02 1407.71,1424.09 1415.79,1427.54C1424.25,1431.45 1432.19,1436.92 1437.66,1443.5C1445.41,1452.13 1449.67,1460.56 1451.85,1470.07C1454.51,1481.85 1453.02,1495.14 1448.61,1505.18Z" style="fill:rgb(66,90,136);"/>
            </g>
        </g>
    </g>
</svg>
