<?xml version="1.0" encoding="UTF-8" standalone="no"?>
<!DOCTYPE svg PUBLIC "-//W3C//DTD SVG 1.1//EN" "http://www.w3.org/Graphics/SVG/1.1/DTD/svg11.dtd">
<svg width="100%" height="100%" viewBox="0 0 504 313" version="1.1" xmlns="http://www.w3.org/2000/svg" xmlns:xlink="http://www.w3.org/1999/xlink" xml:space="preserve" xmlns:serif="http://www.serif.com/" style="fill-rule:evenodd;clip-rule:evenodd;stroke-linejoin:round;stroke-miterlimit:2;">
    <g transform="matrix(1,0,0,1,-127.328,-127.327)">
        <g transform="matrix(1,0,0,1,432,205.1)">
            <g id="Bancontact" transform="matrix(1,0,0,1,-432,-205.1)">
                <path d="M127.328,438.865L127.328,366.107L149.779,366.107C166.098,366.107 176.596,372.239 176.596,384.92C176.596,392.092 173.27,397.081 168.593,399.991C175.349,403.109 179.298,409.138 179.298,417.349C179.298,432.005 168.593,438.865 151.962,438.865L127.328,438.865ZM141.776,396.353L152.482,396.353C159.03,396.353 161.837,393.131 161.837,387.207C161.837,380.866 156.743,378.788 149.883,378.788L141.776,378.788L141.776,396.353ZM141.776,426.184L150.715,426.184C159.446,426.184 164.539,424.001 164.539,417.142C164.539,410.386 160.174,407.579 151.962,407.579L141.776,407.579L141.776,426.184ZM207.316,440.112C193.076,440.112 185.904,433.149 185.904,423.794C185.904,413.503 194.324,407.475 206.797,407.371C209.896,407.428 212.988,407.706 216.047,408.203L216.047,405.708C216.047,399.368 212.409,396.353 205.445,396.353C200.754,396.294 196.095,397.142 191.725,398.848L189.127,387.623C193.596,385.751 200.768,384.504 207.108,384.504C222.388,384.504 229.975,392.612 229.975,406.644L229.975,435.539C225.714,437.722 217.71,440.112 207.316,440.112ZM216.047,428.367L216.047,417.245C213.624,416.707 211.15,416.428 208.668,416.414C203.886,416.414 200.144,418.285 200.144,423.17C200.144,427.536 203.263,429.822 208.771,429.822C211.276,429.904 213.767,429.406 216.047,428.367ZM240.074,438.865L240.074,389.077C247.543,386.077 255.515,384.525 263.565,384.504C278.74,384.504 287.471,391.988 287.471,405.812L287.471,438.865L273.127,438.865L273.127,406.851C273.127,399.679 269.801,396.353 263.46,396.353C260.312,396.309 257.192,396.948 254.314,398.224L254.314,438.865L240.074,438.865ZM337.598,387.623L334.895,398.952C331.182,397.343 327.195,396.461 323.15,396.353C314.731,396.353 310.157,402.278 310.157,412.049C310.157,422.754 314.938,428.263 323.877,428.263C327.867,428.154 331.792,427.235 335.415,425.561L337.701,437.098C332.995,439.193 327.884,440.222 322.734,440.112C305.48,440.112 295.501,429.407 295.501,412.464C295.501,395.626 305.376,384.504 321.903,384.504C327.291,384.478 332.629,385.538 337.598,387.623L337.598,387.623ZM368.585,440.112C352.578,440.112 342.6,428.991 342.6,412.256C342.6,395.626 352.578,384.504 368.585,384.504C384.696,384.504 394.466,395.626 394.466,412.256C394.466,428.991 384.696,440.112 368.585,440.112L368.585,440.112ZM368.585,428.263C375.965,428.263 379.81,422.131 379.81,412.256C379.81,402.486 375.965,396.353 368.585,396.353C361.309,396.353 357.255,402.486 357.255,412.256C357.255,422.131 361.309,428.263 368.585,428.263L368.585,428.263ZM402.767,438.865L402.767,389.077C410.236,386.077 418.208,384.525 426.257,384.504C441.432,384.504 450.164,391.988 450.164,405.812L450.164,438.865L435.82,438.865L435.82,406.851C435.82,399.679 432.493,396.353 426.153,396.353C423.005,396.309 419.884,396.948 417.006,398.224L417.006,438.865L402.767,438.865ZM482.512,440.112C470.143,440.112 463.803,433.356 463.803,419.636L463.803,397.185L456.735,397.185L456.735,385.751L463.803,385.751L463.803,374.214L478.147,373.486L478.147,385.751L489.684,385.751L489.684,397.185L478.147,397.185L478.147,419.428C478.147,425.457 480.641,428.263 485.319,428.263C487.172,428.259 489.02,428.049 490.827,427.64L491.555,439.177C488.587,439.835 485.552,440.148 482.512,440.112L482.512,440.112ZM518.717,440.112C504.477,440.112 497.305,433.149 497.305,423.794C497.305,413.503 505.724,407.475 518.197,407.371C521.297,407.428 524.388,407.706 527.448,408.203L527.448,405.708C527.448,399.368 523.81,396.353 516.846,396.353C512.155,396.294 507.496,397.142 503.126,398.848L500.527,387.623C504.997,385.751 512.169,384.504 518.509,384.504C533.788,384.504 541.376,392.612 541.376,406.644L541.376,435.539C537.114,437.722 529.111,440.112 518.717,440.112L518.717,440.112ZM527.448,428.367L527.448,417.245C525.025,416.707 522.551,416.428 520.068,416.414C515.287,416.414 511.545,418.285 511.545,423.17C511.545,427.536 514.663,429.822 520.172,429.822C522.677,429.904 525.167,429.406 527.448,428.367L527.448,428.367ZM590.451,387.623L587.749,398.952C584.036,397.343 580.049,396.461 576.004,396.353C567.584,396.353 563.011,402.278 563.011,412.049C563.011,422.754 567.792,428.263 576.731,428.263C580.72,428.154 584.646,427.235 588.268,425.561L590.555,437.098C585.849,439.192 580.738,440.222 575.588,440.112C558.334,440.112 548.355,429.407 548.355,412.464C548.355,395.626 558.23,384.504 574.756,384.504C580.144,384.478 585.483,385.538 590.451,387.623L590.451,387.623ZM621.988,440.112C609.619,440.112 603.278,433.356 603.278,419.636L603.278,397.185L596.21,397.185L596.21,385.751L603.278,385.751L603.278,374.214L617.622,373.486L617.622,385.751L629.16,385.751L629.16,397.185L617.622,397.185L617.622,419.428C617.622,425.457 620.117,428.263 624.794,428.263C626.648,428.259 628.495,428.049 630.303,427.64L631.031,439.177C628.062,439.835 625.028,440.148 621.988,440.112L621.988,440.112Z" style="fill:rgb(30,55,100);fill-rule:nonzero;"/>
            </g>
        </g>
        <g transform="matrix(1,0,0,1,432,205.1)">
            <g id="blue-symbol" transform="matrix(1,0,0,1,-432,-205.1)">
                <path d="M227.379,329.728C303.279,329.728 341.229,279.128 379.179,228.527L127.328,228.527L127.328,329.728L227.379,329.728Z" style="fill:url(#_Linear1);fill-rule:nonzero;"/>
            </g>
        </g>
        <g transform="matrix(1,0,0,1,432,205.1)">
            <g id="yellow-symbol" transform="matrix(1,0,0,1,-432,-205.1)">
                <path d="M530.979,127.327C455.079,127.327 417.129,177.927 379.179,228.527L631.03,228.527L631.03,127.327L530.979,127.327Z" style="fill:url(#_Linear2);fill-rule:nonzero;"/>
            </g>
        </g>
    </g>
    <defs>
        <linearGradient id="_Linear1" x1="0" y1="0" x2="1" y2="0" gradientUnits="userSpaceOnUse" gradientTransform="matrix(184.24,-68.4318,68.4318,184.24,178.27,283.799)"><stop offset="0" style="stop-color:rgb(0,90,185);stop-opacity:1"/><stop offset="1" style="stop-color:rgb(30,55,100);stop-opacity:1"/></linearGradient>
        <linearGradient id="_Linear2" x1="0" y1="0" x2="1" y2="0" gradientUnits="userSpaceOnUse" gradientTransform="matrix(195.625,-66.7425,66.7425,195.625,394.428,237.305)"><stop offset="0" style="stop-color:rgb(251,169,0);stop-opacity:1"/><stop offset="1" style="stop-color:rgb(255,216,0);stop-opacity:1"/></linearGradient>
    </defs>
</svg>
