<svg width="20px" height="16px" viewBox="0 0 20 16" xmlns="http://www.w3.org/2000/svg">
  <g fill="none">
    <path d="M7.32.02V0h5.26v.02A7.96 7.96 0 0 1 19.9 8c0 4.2-3.2 7.67-7.32 7.98V16H7.32v-.02A7.96 7.96 0 0 1 0 8C0 3.8 3.2.33 7.32.02z" fill="#0165AC"/>
    <path d="M9.47 12.52A4.8 4.8 0 0 0 12.62 8a4.8 4.8 0 0 0-3.15-4.52v9.04zM6.32 3.48A4.8 4.8 0 0 0 3.17 8a4.8 4.8 0 0 0 3.15 4.52V3.48zm1.57 11.45A6.89 6.89 0 0 1 1.05 8 6.89 6.89 0 0 1 7.9 1.07 6.9 6.9 0 0 1 14.75 8a6.89 6.89 0 0 1-6.85 6.93z" fill="#FFF"/>
  </g>
</svg>
