<svg width="38px" height="6px" viewBox="0 0 38 6" xmlns="http://www.w3.org/2000/svg">
  <g fill="none">
    <path d="M38 5.85h-1.45l-1.63-2.3h-.16v2.3h-1.18V.15h1.75c1.36 0 2.15.6 2.15 1.68 0 .88-.5 1.46-1.38 1.63l1.9 2.4zm-1.75-3.97c0-.56-.39-.84-1.12-.84h-.37v1.72h.34c.76 0 1.15-.3 1.15-.88zM29.45.15h3.34v.96h-2.16v1.27h2.08v.98h-2.08v1.55h2.16v.96h-3.35V.15zM25.64 6L23.07.13h1.3l1.61 3.84L27.63.13h1.26L26.3 6h-.66zm-10.72-.01c-1.8 0-3.2-1.31-3.2-3 0-1.66 1.43-2.99 3.23-2.99.5 0 .93.1 1.45.34v1.32a2.1 2.1 0 0 0-1.48-.64c-1.12 0-1.98.87-1.98 1.96 0 1.16.84 1.98 2.04 1.98.53 0 .94-.17 1.42-.63v1.33c-.53.23-.98.33-1.48.33zM11.36 4.1c0 1.11-.86 1.88-2.1 1.88a2.4 2.4 0 0 1-2.1-1.08l.78-.71c.27.51.72.76 1.28.76.53 0 .91-.34.91-.79 0-.25-.1-.45-.35-.6a4.71 4.71 0 0 0-.81-.33c-1.12-.38-1.5-.78-1.5-1.58C7.47.74 8.3.04 9.36.04c.67 0 1.28.23 1.79.65l-.62.74c-.25-.28-.6-.45-.96-.44-.5 0-.87.27-.87.63 0 .3.2.46.91.72 1.35.44 1.75.86 1.75 1.8V4.1zM5.55.15h1.18v5.71H5.55V.16zm-3.8 5.71H0V.16h1.75C3.65.15 4.98 1.32 4.98 3c0 .85-.4 1.67-1.08 2.2-.6.46-1.25.67-2.17.67h.02zm1.37-4.29c-.39-.32-.84-.45-1.61-.45h-.33v3.79h.33c.76 0 1.23-.16 1.61-.46.41-.36.65-.9.65-1.45 0-.56-.24-1.08-.65-1.43z" fill="#000"/>
    <path d="M20 0c-1.65 0-3 1.32-3 2.96A2.95 2.95 0 0 0 20 6c1.68 0 3-1.32 3-3s-1.3-3-3-3z" fill="#F27712"/>
  </g>
</svg>
