<svg width="33px" height="13px" viewBox="0 0 33 13" xmlns="http://www.w3.org/2000/svg">
  <g fill="none">
    <path d="M15.32 6.36v3.77h-1.2V.82h3.17c.77-.02 1.5.27 2.06.8.55.5.87 1.22.86 1.97a2.6 2.6 0 0 1-.86 1.97c-.56.53-1.24.8-2.06.8h-1.97zm0-4.4v3.25h2c.45.02.88-.16 1.19-.48a1.59 1.59 0 0 0 0-2.27c-.3-.33-.74-.51-1.19-.5h-2zm7.64 1.59c.89 0 1.58.24 2.1.7.5.48.76 1.13.76 1.95v3.93h-1.14v-.89h-.05a2.3 2.3 0 0 1-1.98 1.1c-.7 0-1.29-.21-1.76-.63a2 2 0 0 1-.71-1.56c0-.66.25-1.18.75-1.57a3.1 3.1 0 0 1 2-.59c.7 0 1.29.13 1.75.4V6.1c0-.4-.18-.8-.5-1.06a1.7 1.7 0 0 0-1.15-.43c-.67 0-1.2.28-1.59.84L20.4 4.8a2.93 2.93 0 0 1 2.57-1.25zm-1.55 4.63c0 .3.15.6.4.78.27.2.6.32.93.3.5 0 .99-.2 1.35-.55.4-.37.59-.81.59-1.31-.37-.3-.9-.45-1.56-.45-.49 0-.9.12-1.22.35-.32.24-.49.53-.49.88zm10.98-4.42l-4 9.18h-1.23l1.48-3.22-2.62-5.96h1.3l1.9 4.57h.02l1.85-4.57z" fill="#5F6368"/>
    <path d="M10.48 5.54c0-.36-.03-.72-.09-1.08H5.35v2.06h2.89c-.12.66-.5 1.25-1.07 1.62v1.34h1.72a5.23 5.23 0 0 0 1.6-3.94z" fill="#4285F4"/>
    <path d="M5.35 10.77c1.44 0 2.66-.47 3.54-1.29L7.17 8.14a3.2 3.2 0 0 1-1.82.51 3.2 3.2 0 0 1-3-2.2H.57v1.37a5.35 5.35 0 0 0 4.78 2.95z" fill="#34A853"/>
    <path d="M2.35 6.45a3.2 3.2 0 0 1 0-2.05V3.02H.57a5.35 5.35 0 0 0 0 4.8l1.78-1.37z" fill="#FBBC04"/>
    <path d="M5.35 2.2A2.9 2.9 0 0 1 7.4 3l1.53-1.53A5.35 5.35 0 0 0 .57 3.02L2.35 4.4a3.2 3.2 0 0 1 3-2.2z" fill="#EA4335"/>
  </g>
</svg>
