<svg width="218" height="55" viewBox="0 0 218 55" fill="none" xmlns="http://www.w3.org/2000/svg">
<path fill-rule="evenodd" clip-rule="evenodd" d="M20.0849 38.5151C11.5688 38.5151 4.9808 31.8201 4.9808 23.09L4.98318 23.0888C4.98318 14.5727 11.8386 7.82428 20.5687 7.82428C25.71 7.82428 29.9942 9.53844 32.5119 11.3061V14.3053L32.2979 14.4657C28.9243 12.1085 25.282 10.9839 20.6757 10.9839C13.6051 10.9839 8.46379 15.9112 8.46379 23.0888C8.46379 30.2664 13.2306 35.3542 20.0861 35.3542C26.2984 35.3542 29.1906 31.6584 29.1371 28.4988H20.4605V25.2856H32.4037V27.3742C32.4037 33.2121 28.601 38.5151 20.0849 38.5151ZM20.0849 43.2819C8.56959 43.2819 0 34.6588 0 23.09C0 11.8957 8.94404 3.05864 20.5663 3.05864C25.4401 3.05864 29.4569 4.18319 32.5095 6.37878V9.53844C29.3499 7.34285 25.1727 6.2183 20.5663 6.2183C10.8722 6.2183 3.37363 13.3947 3.37363 23.0888C3.37363 32.783 10.4965 40.121 20.0837 40.121C28.8149 40.121 34.0097 34.9263 34.0097 26.5706V23.6784H20.4593V20.5723H37.0101V26.0357C37.0101 36.6939 30.5826 43.2819 20.0849 43.2819ZM43.812 42.3713V25.8217H43.8097C43.8097 20.2513 47.6124 16.3416 53.0224 16.3416C54.6295 16.3416 56.2902 16.823 57.4147 17.5731C56.8798 18.3767 56.4507 19.2338 56.0227 20.2513C55.0052 19.8222 54.0411 19.5547 52.97 19.5547C49.3824 19.5547 46.9717 22.1795 46.9717 25.8752V42.3713H43.812ZM42.3118 42.3713H39.1522V25.8764C39.1522 17.4673 44.5074 11.7899 52.9165 11.7899C55.8087 11.7899 58.487 12.5935 60.4686 13.9855C59.6115 14.6809 58.9696 15.431 58.38 16.1276C57.4159 15.5392 55.2191 14.8426 53.077 14.8426C46.7042 14.8426 42.3118 19.2873 42.3118 25.8217V42.3713ZM88.6951 28.5V23.8401L88.6963 23.8389C88.8557 23.6171 89.0159 23.3932 89.1773 23.1677C93.0283 17.786 97.5121 11.5201 105.942 11.5201C114.726 11.5201 121.154 18.429 121.154 27.3742C121.154 36.3195 114.78 43.2819 106.103 43.2819C99.3545 43.2819 94.1597 39.264 92.3921 34.1762L94.6412 31.1235C95.7657 36.3183 100.586 40.121 106.156 40.121C113.012 40.121 117.993 34.7658 117.993 27.3742C117.993 19.9827 112.904 14.7344 105.941 14.7344C100.799 14.7344 97.4787 17.3056 93.6759 21.9655C92.3896 23.5283 91.0235 25.3668 89.4772 27.4481C89.2216 27.7921 88.961 28.1428 88.6951 28.5ZM98.3892 26.1962H98.4962L98.4974 26.1938V26.6764C98.4974 31.2828 101.657 35.4065 106.156 35.4065C110.441 35.4065 113.279 31.8177 113.279 27.3195C113.279 22.8214 110.387 19.4465 105.888 19.4465C101.84 19.4465 99.6996 22.0486 96.7363 25.6518C96.406 26.0534 96.0655 26.4674 95.711 26.8916C93.6224 29.4093 90.7837 33.0516 88.6951 36.1578V31.0165C90.3261 28.7255 91.8441 26.773 93.0046 25.2803C93.4452 24.7135 93.8343 24.213 94.1585 23.7854C96.5681 20.5723 99.8359 16.2334 105.941 16.2334C112.047 16.2334 116.492 20.9467 116.492 27.3207C116.492 33.6947 112.047 38.5685 106.155 38.5685C100.264 38.5685 96.3529 33.4273 95.925 29.571L98.3892 26.1962ZM95.3366 13.6099V0.273438H98.4962V11.5213C97.5142 11.895 96.573 12.6367 95.7082 13.3182C95.5827 13.4171 95.4588 13.5148 95.3366 13.6099ZM93.7829 14.7879C92.6583 15.9124 91.5873 17.2521 90.6232 18.4837V0.273438H93.7829V14.7879ZM77.716 33.6947L77.7694 33.7482V33.7494V36.9091C76.6984 37.6592 74.3411 38.5162 72.0386 38.5697C65.9332 38.7302 61.3269 34.0704 61.3269 27.4289C61.3269 20.7874 65.9332 16.2346 72.0386 16.2346C78.1439 16.2346 82.4828 20.7874 82.4828 26.9998V42.3725H79.3231V27.1614C79.3231 22.7156 76.5379 19.3954 71.9851 19.3954C67.7532 19.3954 64.5935 22.6621 64.5935 27.4289C64.5935 32.1957 67.8078 35.4089 72.092 35.4089C74.1806 35.4089 76.3774 34.7658 77.716 33.6947ZM72.0386 43.2819C63.148 43.2819 56.56 36.6939 56.56 27.3742L56.5588 27.3754C56.5588 18.3767 63.1468 11.4678 72.0374 11.4678C80.9279 11.4678 87.1949 18.0022 87.1949 26.8928V42.3725H83.9818V26.9475C83.9818 19.8234 79.0022 14.7356 72.0386 14.7356C65.0749 14.7356 59.8267 19.7699 59.8267 27.3754C59.8267 34.9809 64.754 40.1222 72.0386 40.1222C74.4493 40.1222 76.8054 39.2117 77.7694 38.4081V41.5677C76.3227 42.6923 74.0202 43.2819 72.0386 43.2819ZM139.146 30.1858C147.938 30.1858 153.62 24.8792 153.62 16.7305C153.62 8.52937 148.366 3.75779 139.146 3.75779H126.387V42.3548H132.659V30.1858H139.146ZM139.468 9.54693C144.24 9.54693 147.295 12.388 147.295 16.7305C147.295 21.3951 144.24 24.3966 139.468 24.3966H132.66V9.54693H139.468ZM186.003 27.183C186.003 17.1596 179.677 11.7984 170.832 11.7984V11.7972C161.987 11.7972 155.875 18.1225 155.875 27.5575C155.875 36.9925 161.88 43.2642 170.725 43.1572C174.745 43.1037 178.338 40.7453 179.731 37.3146H179.998V42.3536H186.003V27.183ZM179.838 27.2912C179.891 33.5095 176.193 37.2088 170.832 37.2623C165.846 37.3158 162.094 33.456 162.094 27.2377C162.094 21.5555 165.9 17.6422 170.885 17.6422C175.871 17.6422 179.784 20.8589 179.838 27.2912ZM211.417 40.693C211.524 45.8925 208.898 49.1092 203 49.1092V49.1116C198.98 49.1116 195.763 47.6637 193.083 45.9484L192.922 46.0554V51.898C195.495 53.6133 198.872 54.9531 203.107 54.9531C211.737 54.9531 217.259 50.4501 217.259 41.1221V12.7636H211.094V29.2217C211.094 34.6352 208.307 37.2623 203.75 37.2623C199.677 37.2623 196.835 35.2795 196.835 29.8113V12.7636H190.671V30.3474C190.671 38.6567 195.281 43.1596 202.893 43.1596C206.593 43.1596 209.702 41.3361 211.096 38.3345H211.363L211.417 40.693Z" fill="#00B14F"/>
</svg>
