<svg width="22px" height="16px" viewBox="0 0 22 16" xmlns="http://www.w3.org/2000/svg">
  <g fill="none">
    <path d="M0 16h4.4c1 0 2.2-1.2 2.2-2.13V0H2.2C1.2 0 0 1.2 0 3.2V16z" fill="#047AB1"/>
    <path d="M2.5 10.48c-.85 0-1.69-.11-2.5-.34V8.97c.63.38 1.35.59 2.09.62.85 0 1.32-.58 1.32-1.37V5H5.5v3.22c0 1.26-.68 2.26-3 2.26z" fill="#FFF"/>
    <path d="M8 16h4.4c1 0 2.2-1.2 2.2-2.13V0h-4.4C9.2 0 8 1.2 8 3.2V16z" fill="#D42D06"/>
    <path d="M8 5.9c.64-.6 1.74-.97 3.52-.89.97.04 1.98.32 1.98.32v1.19a4.57 4.57 0 0 0-1.9-.61c-1.36-.12-2.18.62-2.18 1.9 0 1.3.82 2.03 2.18 1.93a4.64 4.64 0 0 0 1.9-.62v1.17s-1.01.29-1.98.33c-1.78.09-2.88-.29-3.52-.88V5.9z" fill="#FFF"/>
    <path d="M15 16h4.4c1 0 2.2-1.2 2.2-2.13V0h-4.4c-1 0-2.2 1.2-2.2 3.2V16z" fill="#67B637"/>
    <path d="M20.5 8.95c0 .85-.68 1.38-1.6 1.38H15V5h3.55l.26.01c.8.04 1.4.5 1.4 1.3 0 .61-.41 1.14-1.15 1.27v.03c.81.06 1.44.56 1.44 1.34zm-2.8-3.1l-.15-.02h-1.32v1.35h1.46a.67.67 0 0 0 .51-.68c0-.36-.23-.6-.5-.66zm.16 2.17a.98.98 0 0 0-.18-.01h-1.45v1.46h1.45l.18-.02c.28-.07.5-.34.5-.72 0-.37-.21-.64-.5-.71z" fill="#FFF"/>
  </g>
</svg>
