<?xml version="1.0" encoding="utf-8"?>
<!-- Generator: Adobe Illustrator 26.0.3, SVG Export Plug-In . SVG Version: 6.00 Build 0)  -->
<svg version="1.0" id="katman_1" xmlns="http://www.w3.org/2000/svg" xmlns:xlink="http://www.w3.org/1999/xlink" x="0px" y="0px"
	 viewBox="0 0 600 450" style="enable-background:new 0 0 600 450;" xml:space="preserve">
<style type="text/css">
	.st0{fill:#FEC704;}
	.st1{fill:#304697;}
	.st2{fill:#E62E24;}
	.st3{fill:#010202;}
</style>
<path class="st0" d="M381.6,244.2l-45.3-69.7l-62.7,96.6h94.5C381.4,270.5,388.8,255.3,381.6,244.2z"/>
<path class="st1" d="M295.3,84.9h-77.5c-10.7,0-19.5,8.8-19.5,19.5v129.9L295.3,84.9z"/>
<path class="st2" d="M363.6,84.9h-68.3l-97.1,149.4v17.3c0,10.7,8.8,19.5,19.5,19.5h55.8l62.7-96.6l40.7-62.7
	C384.3,100.6,376.9,85.5,363.6,84.9z"/>
<path class="st3" d="M442.9,301.5c2.8,0,4.9,2.1,4.9,4.9c0,2.8-2.1,4.9-4.9,4.9c-2.8,0-4.9-2.1-4.9-4.9
	C438,303.7,440.1,301.5,442.9,301.5 M442.9,300.1c-3.6,0-6.3,2.8-6.3,6.3c0,3.6,2.7,6.3,6.3,6.3s6.3-2.8,6.3-6.3
	C449.3,302.9,446.6,300.1,442.9,300.1z M224.1,316.6c-15.3,0-24.2,10.8-24.2,24.6c0,13.8,8.9,24.6,24.2,24.6s24.2-10.8,24.2-24.6
	C248.3,327.3,239.4,316.6,224.1,316.6z M224.1,355.7c-7.6,0-12-6.7-12-14.6c0-7.8,4.4-14.6,12-14.6s12,6.7,12,14.6
	C235.9,349,231.6,355.7,224.1,355.7z M279.7,316.6c-6.1,0-11.3,3.4-14.8,8.4v-7.7h-11.7V365h11.7v-19c0-12.6,5.2-19.4,10.9-19.4
	c4,0,6.8,2.2,6.8,7.8V365h11.7V331C294.4,321.4,288.2,316.6,279.7,316.6z M325,316.6c-4.8,0-9.4,2.5-11.5,5.1v-21h-11.7V365h11.7
	v-4.9c1.3,2.5,5.7,5.7,11.5,5.7c14.4,0,21.8-9.9,21.8-24.6C346.8,326.6,339.4,316.6,325,316.6z M323.4,355.7c-6.1,0-11-5.1-11-14.6
	s4.8-14.6,11-14.6s11.1,5.1,11.1,14.6S329.5,355.7,323.4,355.7z M357.8,300.1c-3.6,0-6.3,2.8-6.3,6.3c0,3.6,2.7,6.3,6.3,6.3
	s6.3-2.8,6.3-6.3C364.1,302.9,361.4,300.1,357.8,300.1z M351.9,317.3h11.7V365h-11.7V317.3z M425.2,312.8c3.6,0,6.3-2.8,6.3-6.3
	s-2.7-6.3-6.3-6.3s-6.3,2.8-6.3,6.3C418.8,310,421.5,312.8,425.2,312.8z M419.3,317.3H431V365h-11.7V317.3z M397.3,316.6
	c-6.1,0-11.3,3.4-14.8,8.4v-7.7h-11.7V365h11.7v-19c0-12.6,5.2-19.4,10.9-19.4c4,0,6.8,2.2,6.8,7.8V365H412V331
	C412,321.4,405.9,316.6,397.3,316.6z"/>
<path class="st3" d="M200.7,300.6h-15.1l-22.3,24.8v-24.8H151V365h12.3v-22.7l6.4-7.1l19.1,29.9h14.6l-25.1-39.4L200.7,300.6z
	 M443.9,306.6l1.8,2.9h-1.3l-1.7-2.8H442v2.8h-1.2V303h2.4c1.3,0,2,0.8,2,1.8C445.1,305.7,444.7,306.4,443.9,306.6z M443.9,304.8
	c0-0.6-0.3-0.7-0.7-0.7H442v1.5h1.2C443.6,305.6,443.9,305.4,443.9,304.8z"/>
</svg>
