<svg width="22px" height="14px" viewBox="0 0 22 14" xmlns="http://www.w3.org/2000/svg">
  <g fill="none">
    <path fill="#FF5F00" d="M8.02 1.5h5.92v10.87H8.02z"/>
    <path d="M8.4 6.93c0-2.11.95-4.12 2.58-5.42a6.67 6.67 0 0 0-9.15.74 7 7 0 0 0 0 9.37 6.67 6.67 0 0 0 9.15.74A6.94 6.94 0 0 1 8.4 6.93z" fill="#EB001B"/>
    <path d="M21.93 6.93a6.92 6.92 0 0 1-3.8 6.21 6.66 6.66 0 0 1-7.15-.78 6.95 6.95 0 0 0 0-10.85 6.66 6.66 0 0 1 7.14-.79 6.92 6.92 0 0 1 3.81 6.21z" fill="#F79E1B"/>
  </g>
</svg>
