<svg xmlns="http://www.w3.org/2000/svg" viewBox="0 0 40 26"><mask id="a" width="3.44" height="3.73" x="18.38" y="19.03" maskUnits="userSpaceOnUse"><path fill="#fff" d="M18.38 22.77h3.44v-3.74h-3.44z"/></mask><mask id="b" width="15.32" height="15.37" x="12.34" y="2.46" maskUnits="userSpaceOnUse"><path fill="#fff" d="M27.66 2.46H12.34v15.38h15.32z"/></mask><path fill="#0c5aa5" d="M0 .07h40v25.88H0z"/><path fill="#fff" d="m35.13 19.04-.66 1.25-.65-1.25H32.7l1.2 2.16v1.57h1.13V21.2l1.21-2.16h-1.1zM28.3 20.5a.55.55 0 0 1-.31.12h-.45v-.83H28a.49.49 0 0 1 .32.12.41.41 0 0 1 .12.3.37.37 0 0 1-.13.3m.94-1.18a1.31 1.31 0 0 0-.94-.3h-1.87v3.73h1.11v-1.38h.64a1.48 1.48 0 0 0 1.04-.32 1.15 1.15 0 0 0 .34-.88 1.11 1.11 0 0 0-.32-.85m1.85 2.01h-.27L31.1 20l.01.06.27 1.28zm.55-2.3h-1.1l-1.22 3.72h1.13l.16-.61h.96l.16.61h1.13zm-20.55-.01h3.12v.8h-2v.66h1.73v.75h-1.72v1.52H11.1zm6.81.8v-.8h-3.13v3.73h3.13v-.8h-2v-.72h1.32v-.75h-1.32v-.66zm4.21-.81h1.12l.66 1.27.66-1.27h1.1l-1.2 2.17v1.57h-1.13v-1.57l-1.2-2.17z"/><g mask="url(#a)"><path fill="#fff" d="M18.39 19.03h3.43v.8h-1.16v2.94h-1.12v-2.94h-1.16z"/></g><path fill="#fff" d="M9.1 21.34h-.36L9 20v.06l.04.13.24 1.15zm.45-2.31h-1.1l-1.22 3.73h1.13l.16-.61h.97l.16.61h1.13zm-5.79 2.45h1.08a.66.66 0 0 0 .14.36.61.61 0 0 0 .5.22.58.58 0 0 0 .39-.11.33.33 0 0 0 .13-.26.33.33 0 0 0-.13-.26 1.52 1.52 0 0 0-.59-.2 2.51 2.51 0 0 1-1.07-.44.87.87 0 0 1-.33-.7.92.92 0 0 1 .17-.52 1.09 1.09 0 0 1 .5-.4 2.39 2.39 0 0 1 .91-.14 1.92 1.92 0 0 1 1.09.26 1.14 1.14 0 0 1 .44.83H5.9a.44.44 0 0 0-.17-.3.6.6 0 0 0-.38-.11.47.47 0 0 0-.3.08.25.25 0 0 0-.1.2.2.2 0 0 0 .08.16.96.96 0 0 0 .38.13 5.02 5.02 0 0 1 1.08.32 1.12 1.12 0 0 1 .47.4 1 1 0 0 1 .15.53 1.13 1.13 0 0 1-.2.64 1.22 1.22 0 0 1-.55.45 2.28 2.28 0 0 1-.9.15 1.88 1.88 0 0 1-1.3-.36 1.44 1.44 0 0 1-.4-.93"/><g mask="url(#b)"><path fill="#fff" d="m25.4 11-3.8 3.81-.85-.86 3.8-3.81-3.8-3.81.86-.86 4.66 4.67zm-6.89 3.83-2.26-2.27 2.35-2.35-2.35-2.36 2.26-2.26 2.35 2.35 2.25 2.27zM20 2.46l-7.66 7.69L20 17.83l7.66-7.68z"/></g></svg>