<svg width="32px" height="10px" viewBox="0 0 32 10" xmlns="http://www.w3.org/2000/svg">
  <g fill="none">
    <path fill="#00579F" d="M13.47 9.8h-2.52L12.53.17h2.51zM22.6.41C22.1.21 21.3 0 20.34 0c-2.49 0-4.24 1.31-4.25 3.18-.02 1.39 1.25 2.16 2.2 2.62.98.47 1.31.78 1.31 1.2 0 .64-.79.94-1.51.94-1 0-1.54-.16-2.36-.51l-.33-.16-.36 2.16c.6.27 1.68.5 2.81.51 2.64 0 4.36-1.29 4.38-3.28.01-1.1-.66-1.94-2.11-2.62-.88-.45-1.42-.74-1.42-1.2.01-.4.46-.82 1.45-.82.82-.02 1.42.17 1.88.37l.22.1L22.6.4zm3.34 5.99l1-2.7.34-.92.17.83.59 2.78h-2.1zM29.05.16H27.1c-.6 0-1.05.18-1.31.8L22.05 9.8h2.64l.53-1.44h3.23l.3 1.44h2.33L29.05.17zM8.85.17L6.38 6.74 6.11 5.4a7.4 7.4 0 0 0-3.48-4.04L4.9 9.8h2.66L11.51.17H8.85z"/>
    <path d="M4.1.17H.03L0 .37c3.16.8 5.25 2.72 6.11 5.04L5.23.98C5.1.37 4.64.2 4.1.18z" fill="#F79E1B"/>
  </g>
</svg>
